<?xml version="1.0" encoding="UTF-8"?>
<svg id="Livello_1" data-name="Livello 1" xmlns="http://www.w3.org/2000/svg" version="1.1" viewBox="0 0 3444.7 2144">
  <defs>
    <style>
      .cls-1 {
        fill: #fff;
        stroke-width: 0px;
      }
    </style>
  </defs>
  <path class="cls-1" d="M158,419H36.5V55.3h121.4c52.3,0,96.7,17.2,128.4,49.8,31.7,32.6,48.5,78.3,48.5,132.1s-16.8,99.5-48.5,132.1c-31.7,32.6-76.1,49.8-128.4,49.8h0ZM106.3,353.7h51.2c67.8,0,108.3-43.6,108.3-116.6s-40.5-117.1-108.3-117.1h-51.2v233.6h0Z"/>
  <path class="cls-1" d="M666.3,419h-72.3l-39-101.7h-120.9l-38.5,101.7h-72.3L465.5,55.3h58.6l142.2,363.7h0ZM458.4,253.2h71.7l-35.9-94-35.9,94Z"/>
  <path class="cls-1" d="M823.7,419h-58.7L624.6,55.3h73.9l96.4,256.2,97-256.2h72.2l-140.4,363.7h0Z"/>
  <path class="cls-1" d="M1053.1,419h-69.7V55.3h69.7v363.7h0Z"/>
  <path class="cls-1" d="M1652.7,424c-45.7,0-87.4-18.4-117.3-51.8-30.7-34.3-47-81-47-135s16.2-100.7,47-135c29.9-33.4,71.6-51.8,117.3-51.8,74.6,0,128.5,42.7,144.2,114.2l3.5,16h-68.5l-3.1-8.8c-13.1-37.2-38.7-56.1-76.1-56.1-56.6,0-94.6,48.8-94.6,121.5s38,121.5,94.6,121.5,62.8-18.5,76.1-56.6l3.1-8.8h68.5l-3.5,15.9c-15.6,71.9-69.5,114.8-144.2,114.8h0Z"/>
  <path class="cls-1" d="M1969.8,424c-89.5,0-145-58.3-145-152.2V55.3h69.2v211.5c0,61.3,25.5,92.4,75.9,92.4s75.9-31.1,75.9-92.4V55.3h69.7v217c0,93.5-55.8,151.6-145.6,151.6h0Z"/>
  <path class="cls-1" d="M2233.6,419h-69.7V55.3h139.6c77.7,0,124.2,42.7,124.2,114.3s-46.4,114.3-124.2,114.3h-69.8v135.2h0ZM2233.6,219.1h68.7c25.6,0,56.1-8.6,56.1-49.5s-30.5-50.1-56.1-50.1h-68.7v99.6Z"/>
  <path class="cls-1" d="M171.7,839.7H36.5v-363.7h124.2c78.1,0,124.7,38.4,124.7,102.7s-14.4,57.7-32.6,71.9c26.9,17.1,44.1,47.3,44.1,80.9,0,67.8-46.8,108.2-125.3,108.2h0ZM105.1,775.5h66.5c21.2,0,56.6-5.9,56.6-45.1s-30.8-45.1-56.6-45.1h-66.5v90.2h0ZM105.1,622.8h55.5c50.8,0,56.6-23.9,56.6-41.8s-6.4-40.7-56.6-40.7h-55.5v82.5h0Z"/>
  <path class="cls-1" d="M478.9,844.7c-95.8,0-165.4-78.6-165.4-186.8s16.4-100,46.2-133.9c30.1-34.1,72.4-53,119.2-53s89.5,18.8,119.6,52.9c29.9,33.8,46.3,81.3,46.3,133.9,0,108.2-69.8,186.8-165.9,186.8ZM478.9,536.4c-57.2,0-95.7,48.8-95.7,121.5s38.4,121.5,95.7,121.5,96.2-48.8,96.2-121.5-38.7-121.5-96.2-121.5h0Z"/>
  <path class="cls-1" d="M920.7,839.7h-241.7v-363.7h69.7v298.4h172v65.3h0Z"/>
  <path class="cls-1" d="M1910.4,839.7h-51.8l-168.5-239.8v239.8h-68.1v-363.7h61.2l159.7,228.1v-228.1h67.5v363.7h0Z"/>
  <path class="cls-1" d="M2272.6,839.7h-72.3l-39-101.7h-120.9l-38.5,101.7h-72.3l142.2-363.7h58.6l142.2,363.7h0ZM2064.7,673.9h71.7l-35.9-94-35.9,94h0Z"/>
  <path class="cls-1" d="M2635.8,839.7h-246.7v-46.8l118.2-130.1c30.9-33.7,53.2-58.1,53.2-83s-17.9-44-47.9-44-51.1,34.8-52.8,55.6l-1,12h-71.2l1.5-14.5c7.5-71.6,56-117.8,123.5-117.8s115.9,42.5,115.9,108.2-30.1,77.4-61.9,112.8c-3.2,3.5-6.4,7.1-9.6,10.7l-65.8,72.1h144.4v64.8h0Z"/>
  <path class="cls-1" d="M2785.3,844.7c-40.7,0-76.8-19.1-101.8-53.8-24.3-33.7-37.2-79.7-37.2-133.1s12.9-99.3,37.2-133.1c25-34.7,61.2-53.8,101.8-53.8s76.8,19.1,101.8,53.8c24.3,33.7,37.2,79.7,37.2,133.1s-12.9,99.3-37.2,133.1c-25,34.7-61.2,53.8-101.8,53.8ZM2785.3,536.4c-65.3,0-70.4,93-70.4,121.5s5.1,121.5,70.4,121.5,70.4-62.8,70.4-121.5-18.5-121.5-70.4-121.5h0Z"/>
  <path class="cls-1" d="M3178.8,839.7h-246.7v-46.8l118.2-130.1c30.9-33.7,53.2-58.1,53.2-83s-17.9-44-47.9-44-51.1,34.8-52.8,55.6l-1,12h-71.2l1.5-14.5c7.5-71.6,56-117.8,123.5-117.8s115.9,42.5,115.9,108.2-30.1,77.4-61.9,112.8c-3.2,3.5-6.4,7.1-9.6,10.7l-65.8,72.1h144.4v64.8h0Z"/>
  <path class="cls-1" d="M3432.7,839.7h-246.7v-46.8l118.2-130.1c30.9-33.7,53.2-58.1,53.2-83s-17.9-44-47.9-44-51.1,34.8-52.8,55.6l-1,12h-71.2l1.5-14.5c7.5-71.6,56-117.8,123.5-117.8s115.9,42.5,115.9,108.2-30.1,77.4-61.9,112.8c-3.2,3.5-6.4,7.1-9.6,10.7l-65.8,72.1h144.4v64.8h0Z"/>
  <path class="cls-1" d="M149.2,1247.3h-42.3v-285.8l-83.5,42.9v-44l100-51.1h25.8v338h0Z"/>
  <path class="cls-1" d="M293.1,1056.1h22.5c35.7,0,63.2-20.3,63.2-56.6s-23.6-57.2-61.6-57.2-62.1,24.7-67,59.9h-42.3c8.2-57.2,49.5-97.3,109.4-97.3s102.8,38.5,102.8,92.3-22,67.6-52.8,76.9c36.3,10.4,59.4,40.7,59.4,78.6,0,55.5-40.7,99.5-108.3,99.5s-111.6-40.1-117.1-101.1h42.3c6,39,31.9,63.7,74.2,63.7s67.6-24.2,67.6-61.6-30.2-60.4-68.7-60.4h-23.6v-36.8h0Z"/>
  <path class="cls-1" d="M588.2,1084.6h132.4v38.5h-132.4v-38.5Z"/>
  <path class="cls-1" d="M1003.7,1247.3h-42.3v-285.8l-83.5,42.9v-44l100-51.1h25.8v338h0Z"/>
  <path class="cls-1" d="M1063.6,1155.5c0-44,28.6-75.8,65.9-85.7-31.3-11-53.9-39-53.9-75.8,0-54.4,45.6-89,102.8-89s103.3,34.6,103.3,89-23.1,64.9-53.9,75.8c36.8,9.9,65.9,41.8,65.9,85.7s-50,96.7-115.4,96.7-114.9-38.5-114.9-96.7h0ZM1252.1,1152.2c0-37.9-30.8-64.3-73.6-64.3s-73.1,26.4-73.1,64.3,30.8,64.9,73.1,64.9,73.6-26.4,73.6-64.9h0ZM1240.6,996.2c0-33.5-26.9-56.1-62.1-56.1s-61.6,22.5-61.6,56.1,26.9,55.5,61.6,55.5,62.1-22.5,62.1-55.5h0Z"/>
  <path class="cls-1" d="M66.2,1580.1c12.6,37.4,44.5,56.1,85.7,56.1s74.7-21.4,74.7-58.8-14.8-43.4-53.9-53.3l-60.4-15.9c-46.7-12.1-80.8-35.7-80.8-86.8s47.3-95.6,111-95.6,111,35.7,123.6,89h-43.4c-10.4-30.2-35.7-52.2-80.2-52.2s-69.8,20.9-69.8,55.5,18.7,42.3,53.9,51.7l57.7,14.8c53.9,13.7,84.1,42.9,84.1,90.7s-49.5,97.8-116.5,97.8-117.1-33.5-129.7-92.9h44,0Z"/>
  <path class="cls-1" d="M544.3,1330.6v38.5h-172v106.6h156.1v38.5h-156.1v114.9h172v39h-214.9v-337.4h214.9,0Z"/>
  <path class="cls-1" d="M588.8,1330.6h278.6v38.5h-117.6v299h-43.4v-299h-117.6v-38.5h0Z"/>
  <path class="cls-1" d="M900.4,1330.6h278.6v38.5h-117.6v299h-43.4v-299h-117.6v-38.5h0Z"/>
  <path class="cls-1" d="M1450.5,1330.6v38.5h-172v106.6h156.1v38.5h-156.1v114.9h172v39h-214.9v-337.4h214.9Z"/>
  <path class="cls-1" d="M1666.5,1668l-106.6-257.2v257.2h-41.2v-337.4h48.9l114.3,277,113.8-277h47.3v337.4h-41.2v-257.2l-105.5,257.2h-29.7Z"/>
  <path class="cls-1" d="M2157.2,1573c0,61.6-42.9,95.1-112.1,95.1h-122v-337.4h111c69.8,0,111.6,31.3,111.6,89.6s-23.1,64.9-49.5,73.1c36.3,9.3,61,41.8,61,79.7h0ZM2034.1,1477.3c45.1,0,69.8-18.1,69.8-55s-24.7-53.9-69.8-53.9h-68.7v108.8h68.7ZM1965.4,1630.1h79.7c45.6,0,69.8-23.1,69.8-58.3s-24.2-58.3-69.8-58.3h-79.7v116.5h0Z"/>
  <path class="cls-1" d="M2262.2,1525.1v142.9h-43.4v-337.4h125.3c67.6,0,110.5,34.1,110.5,97.8s-33,87.9-85.7,95.1l99.5,144.5h-49.5l-96.7-142.9h-59.9,0ZM2262.2,1488.3h80.8c44.5,0,68.7-22.5,68.7-59.9s-24.2-59.9-68.7-59.9h-80.8v119.8Z"/>
  <path class="cls-1" d="M2737,1330.6v38.5h-172v106.6h156.1v38.5h-156.1v114.9h172v39h-214.9v-337.4h214.9Z"/>
  <path class="cls-1" d="M44.2,1954.6v-203.3h42.9v198.4c0,72,34.6,105.5,89,105.5s89-33.5,89-105.5v-198.4h43.4v203.9c0,92.3-55.5,138.5-132.4,138.5s-131.9-46.2-131.9-139h0Z"/>
  <path class="cls-1" d="M645.4,2088.7h-31.9l-188.5-268.2v268.2h-41.8v-337.4h41.2l179.7,256.6v-256.6h41.2v337.4h0Z"/>
  <path class="cls-1" d="M769,2088.7h-43.4v-337.4h43.4v337.4Z"/>
  <path class="cls-1" d="M1490.1,1751.3h43.4v298.4h172v39h-215.4v-337.4h0Z"/>
  <path class="cls-1" d="M2032.5,1751.3l131.9,337.4h-44l-39-101.7h-139l-38.5,101.7h-44l131.9-337.4h40.7,0ZM1956.6,1949.1h109.9l-55-144-55,144h0Z"/>
  <path class="cls-1" d="M2259.4,1945.8v142.9h-43.4v-337.4h125.3c67.6,0,110.5,34.1,110.5,97.8s-33,87.9-85.7,95.1l99.5,144.5h-49.5l-96.7-142.9h-59.9,0ZM2259.4,1909h80.8c44.5,0,68.7-22.5,68.7-59.9s-24.2-59.9-68.7-59.9h-80.8v119.8Z"/>
  <path class="cls-1" d="M2734.2,1751.3v38.5h-172v106.6h156.1v38.5h-156.1v114.9h172v39h-214.9v-337.4h214.9Z"/>
  <path class="cls-1" d="M3064.5,2088.7h-31.9l-188.5-268.2v268.2h-41.8v-337.4h41.2l179.7,256.6v-256.6h41.2v337.4h0Z"/>
  <path class="cls-1" d="M3288.7,1751.3l131.9,337.4h-44l-39-101.7h-139l-38.5,101.7h-44l131.9-337.4h40.7,0ZM3212.9,1949.1h109.9l-55-144-55,144Z"/>
  <path class="cls-1" d="M1258.1,209.6l-57.6-14.8c-36.7-9.8-44.1-22.1-44.1-39,0-31.3,30.5-42.4,56.6-42.4s58,15,67.8,43.4l3.1,8.9h69.4l-3.8-16.2c-14.9-63-64.7-99.1-136.4-99.1s-124.2,45.7-124.2,108.8,29.7,83.8,90.6,99.5l60.6,16c36.5,9.2,43.9,22.9,43.9,40.6s-2.3,16.7-6,22.7c18.2,13.1,33.4,30.2,44.1,50.1,19.1-19,29.9-44.7,29.9-75s-16.3-83.6-94-103.4h0Z"/>
  <path class="cls-1" d="M1149.2,313.7l-3-8.9h-69.6l3.4,15.9c2.2,10.6,5.7,20.4,10.1,29.6,16.8-15.8,37.3-27.7,60.1-34.4-.3-.7-.6-1.5-.8-2.2h0Z"/>
  <path class="cls-1" d="M1172.3,606.5c-14.1-42.7-46.1-69.1-88.4-69.1s-11.9.6-17.6,1.7c23.1,36.2,61.4,61.7,105.9,67.4h0Z"/>
  <path class="cls-1" d="M1222.4,425c-62,0-110.3-27.6-132.5-73.7-28.8,27.1-46.8,65.5-46.8,108.1s.4,11.8,1.1,17.5c12.7-3.1,26-4.8,39.7-4.8,47,0,89.5,18.8,119.6,52.9,17.9,20.3,31,45.6,38.6,73.9,57-20.7,97.8-75.3,97.8-139.5s-6.4-49.5-17.8-70.4c-22.8,22.8-57.5,36-99.7,36h0Z"/>
  <path class="cls-1" d="M1222.4,361.9c11.3,0,42.4-2,55.6-23-24.4-17.5-54.2-27.9-86.5-27.9s-28.3,2.1-41.5,5.9c10.8,29,36.4,44.9,72.4,44.9h0Z"/>
  <path class="cls-1" d="M1439.5,646.9v63.7h78.9c-8.4,44.8-37.6,69.3-83.4,69.3s-37.9-5.5-52.5-15.5c0,.6,0,1.3,0,1.9,0,23.2-6.4,44.8-17.5,63.3,21.3,9.8,45,15,69.9,15,91.4,0,152.7-64.9,152.7-161.5v-36.2h-148.3Z"/>
  <path class="cls-1" d="M1336.7,657.9c0-72.7,39.1-121.5,97.3-121.5s63.4,17.8,77.2,56.2l3.1,8.7h69l-3.5-16c-15.7-71.5-70.2-114.2-145.8-114.2s-88.6,18.3-119,51.5c-28.5,31.1-44.8,72.6-47.6,120.5,26.3,1.8,50.4,11.8,69.6,27.5-.3-4.1-.4-8.4-.4-12.7h0Z"/>
  <path class="cls-1" d="M1135.6,763.2c-14.5,10.4-32,16.1-51.6,16.1-57.2,0-95.7-48.8-95.7-121.5s30.7-110.8,78.1-119.8c-11.7-18.4-19.5-39.5-22.2-62.2-30.8,7.6-58.2,24-79.4,48.2-29.8,33.8-46.2,81.4-46.2,133.9,0,108.2,69.5,186.8,165.4,186.8s48.3-5.4,68.9-15.2c-11-18.5-17.4-40.1-17.4-63.2s0-2.1,0-3.1h0Z"/>
  <path class="cls-1" d="M1242.1,597.9c-15.8,5.7-32.8,8.9-50.6,8.9s-12.9-.5-19.2-1.3c5.1,15.5,7.9,33.1,7.9,52.4s-.2,9.3-.5,13.8c19.2-16.1,43.3-26.5,69.7-28.5-.9-15.7-3.4-30.9-7.3-45.3h0Z"/>
  <path class="cls-1" d="M1179.7,672.7c-26.3,22-43.2,54.8-44.1,91.5,25.1-18.1,41.2-50.3,44.1-91.5Z"/>
  <path class="cls-1" d="M1382.6,765.5c-.6-37.9-18.2-71.6-45.5-93.9,2.7,43,19.1,75.8,45.5,93.9Z"/>
  <path class="cls-1" d="M1315,794.2c-31.4-34.2-48-81-48-135.3s.2-9.9.5-14.8c-2.8-.2-5.6-.3-8.4-.3s-6.5.2-9.6.4c.3,4.8.5,9.7.5,14.7,0,80.1-38.2,143.8-97,171.7,21.6,36.1,61,60.4,106.2,60.4s84.5-24.2,106.1-60.2c-18.9-8.7-35.9-20.9-50.2-36.5h0Z"/>
  <path class="cls-1" d="M1035.7,1886c-10.5,18.2-31,29-61.1,29h-81.9v-125.8h81.9c9.8,0,18.6,1.1,26.3,3.3.7-13.3,3.6-26.1,8.2-38-10.3-2.1-21.5-3.2-33.5-3.2h-126.4v337.4h43.4v-135.2h83c43.6,0,76.8-14.4,95.1-42-13.2-6.4-25-15.1-35.1-25.5h0Z"/>
  <path class="cls-1" d="M1276.8,1746.4c-13,0-25.4,1.6-37.2,4.5,5.1,11.9,8.3,24.7,9.4,38.2,8.7-2.4,18-3.7,27.7-3.7,65.4,0,109.4,55.5,109.4,134.6s-44,134.6-109.4,134.6-108.8-55.5-108.8-134.6,0-2.4,0-3.6c-13.4,4.9-27.9,7.6-42.9,7.6s-.3,0-.5,0c1.7,99.6,64.8,169.7,152.2,169.7s152.8-72,152.8-173.7-63.7-173.7-152.8-173.7h0Z"/>
  <path class="cls-1" d="M1035.7,1887.1c5.4-9.4,8.1-20.7,8.1-33.6,0-30.2-14.6-51.9-42.9-59.9-.1,2.3-.2,4.7-.2,7,0,33.6,13.3,64.1,35,86.5h0Z"/>
  <path class="cls-1" d="M1239.7,1751.9c-19-44.5-63.1-75.7-114.5-75.7s-97.9,32.9-116,79.4c48.4,10,77.5,43.1,77.5,97.9s-5.6,43.5-15.9,59.1c16.3,7.9,34.6,12.4,53.9,12.5,0-1.3,0-2.6,0-4,0-87.2,46.4-152,115.1-169.1h0Z"/>
  <path class="cls-1" d="M1168.1,1917.4c47.6-17.5,81.5-63.2,81.5-116.8s-.2-7-.5-10.5c-48.4,13.3-79.9,61.9-81,127.3h0Z"/>
</svg>