<?xml version="1.0" encoding="UTF-8"?>
<svg id="Livello_1" xmlns="http://www.w3.org/2000/svg" version="1.1" viewBox="0 0 568 382">
  <!-- Generator: Adobe Illustrator 29.0.0, SVG Export Plug-In . SVG Version: 2.1.0 Build 186)  -->
  <defs>
    <style>
      .st0 {
        fill: #4da522;
      }

      .st1 {
        fill: #fbd336;
      }

      .st2 {
        fill: #6ca3ef;
      }

      .st3 {
        fill: #1e1e1e;
      }

      .st4 {
        fill: #f9b6c0;
      }
    </style>
  </defs>
  <path class="st2" d="M110.6,2h-29.4v194.5h82.4v-27.9h-53V2Z"/>
  <path class="st0" d="M479.9,106.8c-3.7-5.3-8.8-9.3-15.4-11.8,5.6-3.8,10-8.1,13.1-12.8,3.1-4.7,4.6-9.4,4.6-14.3v-26.6c0-13.1-3.5-23.3-10.6-30.5-7.1-7.2-17-10.8-29.9-10.8s-24.2,3.6-31.8,10.7c-7.6,7.2-11.4,17.4-11.5,30.6v14.7h29.4v-14.5c0-4.1,1.2-7.3,3.4-9.5,2.3-2.2,5.5-3.3,9.6-3.3s6.8,1.1,9,3.3c2.1,2.2,3.2,5.3,3.2,9.4v25.4c0,4.5-1,8.1-2.9,10.6-1.9,2.5-4.6,3.7-8.1,3.7h-12.2v28.2h12.2c4.5,0,8,1.5,10.5,4.5,2.5,3,3.7,7.2,3.7,12.8v27.3c0,5-1.4,8.9-4,11.6-2.7,2.7-6.4,4.1-11.4,4.1s-9-1.2-11.8-3.7c-2.8-2.5-4.2-6.1-4.2-10.7v-12.7h-29.4v14.1c0,8.9,1.8,16.5,5.4,22.7,3.6,6.3,8.8,11,15.6,14.3,6.8,3.3,15,4.9,24.6,4.9,14.1,0,25-3.8,32.8-11.5,7.8-7.7,11.7-18.6,11.7-32.6v-28.5c0-7.4-1.8-13.8-5.5-19.1h0Z"/>
  <path class="st1" d="M247.6,5.9C240.8,2,232.5,0,222.7,0s-17.9,2-24.8,5.9c-6.9,3.9-12.1,9.6-15.8,16.9-3.7,7.4-5.5,16.4-5.5,27v99.1c0,10.4,1.8,19.4,5.5,26.8,3.7,7.4,8.9,13.1,15.8,17,6.8,3.9,15.1,5.8,24.8,5.8s18.1-2,25-5.9c6.8-3.9,12-9.6,15.6-16.9,3.6-7.4,5.4-16.3,5.5-27v-11.9h-29.7v11.9c0,6.5-1.4,11.6-4.1,15.2-2.7,3.6-6.8,5.4-12.2,5.4s-9.2-1.8-12-5.3c-2.9-3.6-4.3-8.6-4.3-15.1V49.8c0-6.6,1.4-11.7,4.3-15.2,2.9-3.6,6.8-5.3,12-5.3s6.6.8,9,2.5c2.4,1.6,4.2,4,5.5,7,1.2,3,1.9,6.7,1.9,11.1v11.9h29.7v-11.9c0-10.5-1.8-19.5-5.4-26.9-3.6-7.4-8.8-13.1-15.6-17Z"/>
  <path class="st4" d="M333.4,0c-15,0-26.2,4.4-33.6,13.2-7.4,8.8-11.2,22-11.3,39.7v3.7h30v-3.7c0-8.1,1.3-14.2,3.9-18.1,2.6-4,6.7-6,12.2-6s8.1,1.5,10.4,4.4c2.3,2.9,3.4,7.4,3.4,13.4v1.4c0,6.3-1.4,13.5-4.3,21.8-2.9,8.3-7.2,17.6-13.1,27.8l-41.5,72.9v26.1h88.5v-28.3h-52.3l33.8-62.9c6.2-11.6,10.9-22.2,14.1-31.8,3.1-9.6,4.7-18.1,4.7-25.5v-1.4c0-15.5-3.7-27.2-11.2-35C359.6,3.9,348.4,0,333.4,0h0Z"/>
  <path class="st3" d="M184.8,239c0,4-1,6.8-2.8,8.3-1.9,1.5-4.7,2.3-8.5,2.3s-6.6-.8-8.5-2.3c-1.9-1.5-2.8-4.3-2.8-8.3v-29.4h-16.5v32.1c0,3.4.6,6.3,1.9,8.8,1.2,2.4,3.1,4.4,5.5,5.9,2.4,1.5,5.3,2.6,8.8,3.3,3.5.7,7.4,1,11.8,1s8.3-.4,11.8-1c3.5-.7,6.4-1.8,8.8-3.3,2.4-1.5,4.2-3.5,5.5-5.9s1.9-5.3,1.9-8.8v-32.1h-16.5v29.4Z"/>
  <path class="st3" d="M135.8,234c-1.3-1.1-2.8-2-4.7-2.7-1.8-.7-3.9-1.2-6.2-1.7-1.2-.2-2.8-.4-4.9-.7-2-.3-4.1-.6-6.3-1-2.1-.4-4.2-.7-6.1-1-2-.3-3.4-.6-4.5-.7-2.5-.4-3.7-1.4-3.7-3.1s.8-2.8,2.2-3.7c1.5-.8,3.6-1.2,6.4-1.2s3.5.1,4.8.4c1.3.3,2.4.7,3.2,1.2.8.5,1.5,1.1,1.9,1.8.4.7.7,1.5.8,2.3h18.7c-.3-2.9-1.2-5.4-2.6-7.4-1.5-2-3.5-3.7-6-5-2.5-1.3-5.6-2.2-9.2-2.8-3.6-.6-7.6-.9-12.1-.9s-9.8.5-13.2,1.6c-3.4,1-6,2.3-7.8,3.9-1.9,1.6-3.1,3.3-3.7,5.1-.6,1.9-1,3.6-1,5.2,0,3.7,1.1,6.8,3.3,9.2,2.2,2.5,5.8,4.1,10.9,4.8l16.5,2.5c2.9.5,4.9,1,6.1,1.6,1.2.6,1.8,1.6,1.8,2.9s-.2,2-.8,2.6c-.5.7-1.2,1.2-2,1.6-.8.4-1.8.7-2.8.8-1,.2-2.1.2-3.1.2-2.1,0-3.9-.2-5.3-.4-1.4-.3-2.5-.7-3.3-1.2-.8-.5-1.4-1.2-1.8-2-.4-.8-.6-1.6-.7-2.5h-19.6c.2,3.5,1.1,6.3,2.7,8.5,1.6,2.2,3.7,3.9,6.3,5.1,2.6,1.2,5.7,2.1,9.3,2.5,3.5.5,7.4.7,11.6.7s2.6,0,4.5-.1c1.9,0,3.9-.2,6-.6,2.1-.3,4.2-.8,6.4-1.5,2.1-.7,4.1-1.7,5.9-2.9s3.2-2.9,4.3-4.8c1.1-2,1.6-4.3,1.6-7.1s-.3-4.1-1-5.7c-.7-1.6-1.6-2.9-2.9-4.1h0Z"/>
  <path class="st3" d="M246.3,242.3h-.2l-11.3-32.7h-24.2v49.6h15.6v-37.1h.2l13.1,37.1h13.6l13.1-37.1h.1v37.1h15.6v-49.6h-24.2l-11.3,32.7Z"/>
  <path class="st3" d="M327.4,242.3h-.2l-11.3-32.7h-24.2v49.6h15.6v-37.1h.2l13.1,37.1h13.6l13.1-37.1h.1v37.1h15.6v-49.6h-24.2l-11.3,32.7Z"/>
  <path class="st3" d="M485.8,257.1c-.3-.8-.6-1.8-.8-2.9-.2-1.2-.4-2.6-.6-4.3-.2-1.7-.3-3.7-.5-6.2-.2-2.7-.9-4.7-2-6.1-1.1-1.4-2.4-2.3-4-2.8h0c2.2-.7,4.1-1.9,5.6-3.7,1.5-1.8,2.3-4.4,2.3-7.8s-.3-4-.9-5.7c-.6-1.7-1.5-3.1-2.9-4.3-1.3-1.2-3-2.2-5.1-2.8-2.1-.7-4.7-1-7.8-1h-39.7v49.6h16.5v-16.5h15.1c1,0,2,.1,2.8.4.8.2,1.6.7,2.1,1.3.6.6,1,1.6,1.4,2.8.3,1.2.4,2.8.4,4.7s0,2.4.1,3.7c0,1.4.4,2.5.8,3.6h18.1c-.5-.6-.9-1.3-1.2-2h0ZM466.6,230.1c-1,1-2.6,1.5-4.7,1.5h-15.9v-10.8h15.9c2.1,0,3.6.5,4.7,1.5,1,1,1.5,2.3,1.5,3.9s-.5,3.1-1.5,4h0Z"/>
  <path class="st3" d="M372.9,259.2h49.7v-10.7h-33.1v-9h31.1v-10.3h-31.1v-9h33.1v-10.7h-49.7v49.6Z"/>
  <path class="st3" d="M456,306.1v-38.1h-16.5v49.6h46.7v-11.5h-30.2Z"/>
  <path class="st3" d="M137.6,282.5c-.3-2.9-1.2-5.4-2.6-7.4-1.5-2-3.5-3.7-6-5-2.5-1.3-5.6-2.2-9.2-2.8-3.6-.6-7.6-.9-12.1-.9s-9.8.5-13.2,1.6c-3.4,1-6,2.3-7.8,3.9-1.9,1.6-3.1,3.3-3.7,5.1-.6,1.9-1,3.6-1,5.2,0,3.7,1.1,6.8,3.3,9.2,2.2,2.5,5.8,4.1,10.9,4.8l16.5,2.5c2.9.5,4.9,1,6.1,1.6,1.2.6,1.8,1.6,1.8,2.9s-.2,2-.8,2.6c-.5.7-1.2,1.2-2,1.6-.8.4-1.8.7-2.8.8-1,.2-2.1.2-3.1.2-2.1,0-3.9-.2-5.3-.4-1.4-.3-2.5-.7-3.3-1.2-.8-.5-1.4-1.2-1.8-2-.4-.8-.6-1.6-.7-2.5h-19.6c.2,3.5,1.1,6.3,2.7,8.5,1.6,2.2,3.7,3.9,6.3,5.1,2.6,1.2,5.7,2.1,9.3,2.5,3.5.5,7.4.7,11.6.7s2.6,0,4.5-.1c1.9,0,3.9-.2,6-.6,2.1-.3,4.2-.8,6.4-1.5,2.1-.7,4.1-1.7,5.9-2.9s3.2-2.9,4.3-4.8c1.1-2,1.6-4.3,1.6-7.1s-.3-4.1-1-5.7c-.7-1.6-1.6-2.9-2.9-4.1-1.3-1.1-2.8-2-4.7-2.7-1.8-.7-3.9-1.2-6.2-1.7-1.2-.2-2.8-.4-4.9-.7-2-.3-4.1-.6-6.3-1-2.1-.4-4.2-.7-6.1-1-2-.3-3.4-.6-4.5-.7-2.5-.4-3.7-1.4-3.7-3.1s.8-2.8,2.2-3.7c1.5-.8,3.6-1.2,6.4-1.2s3.5.1,4.8.4c1.3.3,2.4.7,3.2,1.2.8.5,1.5,1.1,1.9,1.8.4.7.7,1.5.8,2.3h18.7,0Z"/>
  <path class="st3" d="M193.9,298.5c-.6,2.9-1.9,5.2-4.1,6.9s-5.1,2.6-8.9,2.6-4.9-.4-6.6-1.2c-1.8-.8-3.1-1.9-4.2-3.3-1-1.4-1.8-3-2.2-4.9-.4-1.9-.7-3.8-.7-5.9s.2-4,.7-5.9c.5-1.8,1.2-3.5,2.3-4.9,1.1-1.4,2.5-2.5,4.2-3.3,1.8-.8,3.9-1.2,6.5-1.2s4.3.3,5.9,1c1.5.6,2.7,1.5,3.7,2.4,1,1,1.7,2,2.1,3.1.5,1.1.8,2.1,1.1,3h18.4c-.9-4.3-2.3-7.8-4.3-10.5-2-2.7-4.3-4.8-7-6.3-2.7-1.5-5.8-2.5-9.2-3.1-3.4-.5-7-.8-10.7-.8-5.4,0-10,.6-14,1.8-3.9,1.2-7.2,2.9-9.7,5.2-2.5,2.3-4.4,5-5.7,8.3-1.2,3.3-1.8,6.9-1.8,11.1,0,8.6,2.6,15.1,7.7,19.6,5.1,4.5,13,6.7,23.5,6.7s10.7-.6,14.6-1.7c3.8-1.1,6.9-2.7,9.2-4.6,2.3-1.9,4-4.1,5.2-6.6,1.1-2.5,2-5.1,2.5-7.8h-18.4Z"/>
  <path class="st3" d="M263.8,317.6h16.5v-49.6h-16.5v17.7h-25.1v-17.7h-16.6v49.6h16.6v-20.8h25.1v20.8Z"/>
  <path class="st3" d="M345.3,271.9c-2.9-2-6.4-3.4-10.3-4.2-3.9-.8-8-1.2-12.4-1.2s-8.6.4-12.4,1.2c-3.9.8-7.3,2.2-10.3,4.2-2.9,2-5.3,4.7-7,8.1-1.7,3.4-2.6,7.6-2.6,12.8s.8,9.4,2.6,12.8c1.7,3.4,4.1,6.1,7,8.1,2.9,2,6.4,3.4,10.3,4.2,3.9.8,8,1.2,12.4,1.2s8.5-.4,12.4-1.2c3.9-.8,7.4-2.2,10.3-4.2,2.9-2,5.3-4.7,7-8.1,1.7-3.4,2.6-7.6,2.6-12.8s-.9-9.4-2.6-12.8c-1.7-3.4-4.1-6.1-7-8.1ZM336.3,299.6c-.7,1.9-1.7,3.5-3,4.8-1.3,1.2-2.8,2.2-4.7,2.8-1.8.6-3.9.9-6.1.9s-4.2-.3-6.1-.9c-1.8-.6-3.3-1.5-4.7-2.8-1.3-1.2-2.3-2.8-3-4.8-.7-1.9-1.1-4.2-1.1-6.8s.4-4.8,1.1-6.7c.7-1.9,1.7-3.5,3-4.8,1.3-1.2,2.9-2.2,4.7-2.8,1.8-.6,3.8-1,6.1-1,4.5,0,8,1.2,10.7,3.7,2.7,2.5,4.1,6.3,4.1,11.5s-.4,4.9-1.1,6.8h0Z"/>
  <path class="st3" d="M419.9,271.9c-2.9-2-6.4-3.4-10.3-4.2-3.9-.8-8-1.2-12.4-1.2s-8.6.4-12.4,1.2c-3.9.8-7.3,2.2-10.3,4.2-2.9,2-5.3,4.7-7,8.1-1.7,3.4-2.6,7.6-2.6,12.8s.8,9.4,2.6,12.8c1.7,3.4,4.1,6.1,7,8.1,2.9,2,6.4,3.4,10.3,4.2,3.9.8,8,1.2,12.4,1.2s8.5-.4,12.4-1.2c3.9-.8,7.4-2.2,10.3-4.2,2.9-2,5.3-4.7,7-8.1,1.7-3.4,2.6-7.6,2.6-12.8s-.9-9.4-2.6-12.8c-1.7-3.4-4.1-6.1-7-8.1ZM410.9,299.6c-.7,1.9-1.7,3.5-3,4.8-1.3,1.2-2.8,2.2-4.7,2.8-1.8.6-3.9.9-6.1.9s-4.2-.3-6.1-.9c-1.8-.6-3.3-1.5-4.7-2.8-1.3-1.2-2.3-2.8-3-4.8-.7-1.9-1.1-4.2-1.1-6.8s.4-4.8,1.1-6.7c.7-1.9,1.7-3.5,3-4.8,1.3-1.2,2.9-2.2,4.7-2.8,1.8-.6,3.8-1,6.1-1,4.5,0,8,1.2,10.7,3.7,2.7,2.5,4.1,6.3,4.1,11.5s-.4,4.9-1.1,6.8h0Z"/>
  <path class="st3" d="M93,362.2v-27.6h-12v-2.9h27.1v2.9h-12v27.6h-3.2ZM107.3,362.2v-22.2h3.2v5.1h0c1.2-2.6,3.2-5.8,8.5-5.8s1.4,0,1.9.2v3.2c-1-.2-1.9-.3-2.9-.3-3.4,0-7.6,2.1-7.6,8.4v11.3h-3.2ZM140.8,353.6v-3.4c-1.4.9-3.5,1.1-9.9,1.7-3.7.3-5.8,1.5-5.8,4.1s3,4.5,6.4,4.5,9.3-2.3,9.3-6.9ZM125.9,346.8h-2.9c.5-4.7,3-7.5,10.6-7.5s10.2,2.3,10.2,6.6v11.6c0,1.8.5,2.5,1.8,2.5s1.1,0,1.7,0v2.1c-.6.1-1.6.3-2.6.3-3.2,0-3.4-2.2-3.4-3.9h0c-1,1.5-3.1,4.4-10.4,4.4s-8.6-1.7-8.6-6.7,6.2-6.7,11.1-7c6.9-.4,7.8-.8,7.8-2.9,0-3.2-2.1-4.4-7.3-4.4s-7.4,1.3-7.6,4.9ZM169.9,351.1c0-4.6-2.9-9.1-9.3-9.1s-8.9,3.5-8.9,9.1,2.5,9.1,8.9,9.1,9.3-3.3,9.3-9.1ZM169.7,362.2v-4.4h0c-.9,1.9-3.7,5.1-9.1,5.1-9.1,0-12.1-6.4-12.1-11.8s3.8-11.8,12.1-11.8,7.6,2.3,9.1,5.1h0v-13h3.2v30.8h-3.2ZM177.7,362.2v-22.2h3.2v22.2h-3.2ZM177.7,336.1v-4.7h3.2v4.7h-3.2ZM184,362.2v-2.6l16.9-16.9h-15.9v-2.6h20.4v2.6l-17.2,16.9h17.9v2.6h-22.1ZM209.3,362.2v-22.2h3.2v22.2h-3.2ZM209.3,336.1v-4.7h3.2v4.7h-3.2ZM219.6,351.1c0,5.3,3.5,9.1,9.4,9.1s9.4-3.8,9.4-9.1-3.5-9.1-9.4-9.1-9.4,3.8-9.4,9.1ZM216.4,351.1c0-6.2,4.1-11.8,12.6-11.8s12.6,5.6,12.6,11.8-4.1,11.8-12.6,11.8-12.6-5.6-12.6-11.8ZM264.6,362.2v-14.3c0-4.4-2.7-5.9-6.7-5.9-6.2,0-9,3.2-9,8.2v12.1h-3.2v-22.2h3.2v4.4h0c.9-2.3,4.3-5,9.2-5,7.4,0,9.6,3.8,9.6,9.1v13.8h-3.2ZM275.1,349.5h18.3c-.9-5.5-4.9-7.5-9.1-7.5s-8.4,2.1-9.1,7.5ZM292.8,355.1h3.2c-1.3,3.9-4.6,7.8-12,7.8s-12.1-6.4-12.1-11.8,3.8-11.8,12.1-11.8,12.5,2.5,12.5,12.6h-21.5c0,4.6,3.3,8.4,8.9,8.4s7.7-1.8,8.8-5.1ZM314.7,349.5h18.3c-.9-5.5-4.9-7.5-9.1-7.5s-8.4,2.1-9.1,7.5ZM332.4,355.1h3.2c-1.3,3.9-4.6,7.8-12,7.8s-12.1-6.4-12.1-11.8,3.8-11.8,12.1-11.8,12.5,2.5,12.5,12.6h-21.5c0,4.6,3.3,8.4,8.9,8.4s7.7-1.8,8.8-5.1ZM349.4,358.6l8.7-18.6h3.4l-10.4,22.2h-3.4l-10.4-22.2h3.4l8.7,18.6ZM366.1,349.5h18.3c-.9-5.5-4.9-7.5-9.1-7.5s-8.4,2.1-9.1,7.5ZM383.9,355.1h3.2c-1.3,3.9-4.6,7.8-12,7.8s-12.1-6.4-12.1-11.8,3.8-11.8,12.1-11.8,12.5,2.5,12.5,12.6h-21.5c0,4.6,3.3,8.4,8.9,8.4s7.7-1.8,8.8-5.1ZM391.4,362.2v-22.2h3.2v5.1h0c1.2-2.6,3.2-5.8,8.5-5.8s1.4,0,1.9.2v3.2c-1-.2-1.9-.3-2.9-.3-3.4,0-7.6,2.1-7.6,8.4v11.3h-3.2ZM426.7,346.5h-2.9c-.8-3.6-3-4.6-7.6-4.6s-6.4.7-6.4,3.8,1.5,2.8,8.2,3.7c6.8.9,9.6,2.1,9.6,6.4s-3.6,7.1-10.6,7.1-11.2-2.3-11.2-7.6h2.9c.6,3.7,2.6,5,8.3,5s7.4-.9,7.4-4.2-1.6-3.2-8.5-3.9c-6.9-.7-9.4-2.3-9.4-6.2s3.1-6.6,9.6-6.6,10.2,2.6,10.6,7.3ZM430.9,362.2v-22.2h3.2v22.2h-3.2ZM430.9,336.1v-4.7h3.2v4.7h-3.2ZM448.3,358.6l8.7-18.6h3.4l-10.4,22.2h-3.4l-10.4-22.2h3.4l8.7,18.6ZM480.3,353.6v-3.4c-1.4.9-3.5,1.1-9.9,1.7-3.7.3-5.8,1.5-5.8,4.1s3,4.5,6.4,4.5,9.3-2.3,9.3-6.9ZM465.3,346.8h-2.9c.5-4.7,3-7.5,10.6-7.5s10.2,2.3,10.2,6.6v11.6c0,1.8.5,2.5,1.8,2.5s1.1,0,1.7,0v2.1c-.6.1-1.6.3-2.6.3-3.2,0-3.4-2.2-3.4-3.9h0c-1,1.5-3.1,4.4-10.4,4.4s-8.6-1.7-8.6-6.7,6.2-6.7,11.1-7c6.9-.4,7.8-.8,7.8-2.9,0-3.2-2.1-4.4-7.3-4.4s-7.4,1.3-7.6,4.9Z"/>
</svg>