<?xml version="1.0" encoding="UTF-8"?>
<svg id="Livello_1" xmlns="http://www.w3.org/2000/svg" version="1.1" viewBox="0 0 150 150">
  <!-- Generator: Adobe Illustrator 29.0.0, SVG Export Plug-In . SVG Version: 2.1.0 Build 186)  -->
  <defs>
    <style>
      .st0 {
        fill: red;
      }

      .st1 {
        fill: #6900ff;
        stroke: #000007;
        stroke-miterlimit: 10;
        stroke-width: .5px;
      }
    </style>
  </defs>
  <circle class="st0" cx="75" cy="75" r="75"/>
  <g>
    <path class="st1" d="M26.6,94.4c-4.4,0-7.9-1.2-10.6-3.6-2.7-2.4-4-6.1-4-11.1v-9.4c0-4.8,1.3-8.4,4-10.9,2.7-2.5,6.2-3.8,10.6-3.8s8,1.3,10.6,3.8c2.6,2.5,4,6.2,4,10.9v9.4c0,4.9-1.3,8.6-4,11.1-2.6,2.4-6.2,3.6-10.6,3.6ZM26.6,88.3c2.7,0,4.6-.7,5.9-2.2,1.3-1.5,1.9-3.5,1.9-6.2v-9.9c0-2.7-.7-4.8-2.1-6.2-1.4-1.4-3.3-2.1-5.7-2.1s-4.4.7-5.7,2.2c-1.4,1.5-2.1,3.5-2.1,6.1v9.9c0,2.8.6,4.9,1.9,6.3,1.3,1.4,3.2,2.1,5.8,2.1Z"/>
    <path class="st1" d="M59.9,94.4c-2.8,0-5.4-.4-7.5-1.3-2.2-.9-3.9-2.1-5.1-3.7-1.2-1.6-1.8-3.5-1.8-5.7v-.6c0-1.7.3-3.1.9-4.2.6-1.1,1.4-2,2.3-2.6.9-.6,1.8-1.1,2.6-1.3v-1c-.8-.3-1.6-.7-2.5-1.4-.8-.6-1.5-1.5-2-2.6s-.8-2.3-.8-3.8v-.6c0-2,.6-3.7,1.7-5.1,1.2-1.5,2.8-2.6,4.9-3.5,2.1-.8,4.5-1.3,7.4-1.3s5.3.4,7.4,1.3c2.1.8,3.7,2,4.9,3.5,1.2,1.5,1.7,3.2,1.7,5.1v.6c0,1.5-.3,2.8-.8,3.8-.5,1.1-1.2,1.9-2,2.6-.8.6-1.6,1.1-2.5,1.4v1c.9.2,1.7.7,2.6,1.3.9.6,1.6,1.5,2.2,2.6.6,1.1.9,2.5.9,4.2v.6c0,2.2-.6,4.1-1.8,5.7-1.2,1.6-2.9,2.8-5.1,3.7-2.2.9-4.7,1.3-7.5,1.3ZM59.9,88.3c2.5,0,4.3-.5,5.7-1.4,1.3-.9,2-2.2,2-3.8v-.4c0-1.6-.6-2.8-1.9-3.8-1.3-.9-3.2-1.4-5.7-1.4s-4.4.5-5.7,1.4c-1.3.9-2,2.2-2,3.8v.4c0,1.6.7,2.8,2,3.8,1.3.9,3.2,1.4,5.7,1.4ZM59.9,71.5c2.3,0,4-.4,5.3-1.2,1.2-.8,1.9-2,1.9-3.5v-.4c0-1.5-.6-2.6-1.9-3.5-1.3-.8-3-1.2-5.2-1.2s-3.9.4-5.2,1.2c-1.3.8-1.9,2-1.9,3.5v.4c0,1.5.6,2.6,1.9,3.5,1.2.8,3,1.2,5.3,1.2Z"/>
    <path class="st1" d="M91.8,94.4c-2.8,0-5.4-.4-7.5-1.3-2.2-.9-3.9-2.1-5.1-3.7-1.2-1.6-1.8-3.5-1.8-5.7v-.6c0-1.7.3-3.1.9-4.2.6-1.1,1.4-2,2.3-2.6.9-.6,1.8-1.1,2.6-1.3v-1c-.8-.3-1.6-.7-2.5-1.4-.8-.6-1.5-1.5-2-2.6s-.8-2.3-.8-3.8v-.6c0-2,.6-3.7,1.7-5.1s2.8-2.6,4.9-3.5c2.1-.8,4.5-1.3,7.4-1.3s5.3.4,7.3,1.3c2.1.8,3.7,2,4.9,3.5s1.7,3.2,1.7,5.1v.6c0,1.5-.3,2.8-.8,3.8-.5,1.1-1.2,1.9-2,2.6-.8.6-1.6,1.1-2.5,1.4v1c.9.2,1.7.7,2.6,1.3.9.6,1.6,1.5,2.2,2.6.6,1.1.9,2.5.9,4.2v.6c0,2.2-.6,4.1-1.8,5.7-1.2,1.6-2.9,2.8-5.1,3.7-2.2.9-4.7,1.3-7.5,1.3ZM91.8,88.3c2.4,0,4.3-.5,5.7-1.4,1.3-.9,2-2.2,2-3.8v-.4c0-1.6-.6-2.8-1.9-3.8-1.3-.9-3.2-1.4-5.7-1.4s-4.4.5-5.7,1.4c-1.3.9-2,2.2-2,3.8v.4c0,1.6.7,2.8,2,3.8,1.3.9,3.2,1.4,5.7,1.4ZM91.8,71.5c2.3,0,4-.4,5.3-1.2,1.2-.8,1.9-2,1.9-3.5v-.4c0-1.5-.6-2.6-1.9-3.5-1.3-.8-3-1.2-5.2-1.2s-3.9.4-5.2,1.2c-1.3.8-1.9,2-1.9,3.5v.4c0,1.5.6,2.6,1.9,3.5,1.2.8,3,1.2,5.3,1.2Z"/>
    <path class="st1" d="M123.9,94.4c-2.9,0-5.4-.5-7.5-1.5-2.1-1-3.7-2.5-4.9-4.4-1.1-1.9-1.7-4.1-1.7-6.6v-.5h6.9v.5c0,1.8.6,3.3,1.8,4.6,1.2,1.3,3,1.9,5.3,1.9s4.1-.6,5.4-1.9c1.3-1.3,1.9-2.9,1.9-4.9v-.5c0-2-.6-3.6-1.9-4.7-1.3-1.2-2.8-1.8-4.7-1.8s-1.9.1-2.6.4c-.7.3-1.2.6-1.7,1.1-.4.4-.8.9-1.1,1.3h-8.3v-20.9h25.5v6.2h-18.6v9.1h1c.4-.5.8-.9,1.4-1.3.6-.4,1.4-.8,2.3-1.1,1-.3,2.1-.4,3.4-.4,2.2,0,4.2.5,6,1.4,1.8.9,3.3,2.3,4.3,4.1,1.1,1.8,1.6,4,1.6,6.6v.6c0,2.6-.6,4.9-1.7,6.8-1.1,1.9-2.7,3.4-4.8,4.4s-4.6,1.6-7.5,1.6Z"/>
  </g>
</svg>