<?xml version="1.0" encoding="UTF-8"?>
<svg id="Livello_1" data-name="Livello 1" xmlns="http://www.w3.org/2000/svg" version="1.1" viewBox="0 0 150 150">
  <defs>
    <style>
      .cls-1 {
        fill: #6271ff;
      }

      .cls-1, .cls-2 {
        stroke-width: 0px;
      }

      .cls-2 {
        fill: #fff;
      }
    </style>
  </defs>
  <circle class="cls-1" cx="75" cy="75" r="75"/>
  <g>
    <path class="cls-2" d="M23.6,95.6c-4.8,0-8.5-1.3-11.3-4s-4.4-6.6-4.4-11.7v-10c0-5,1.5-9,4.4-11.7s6.6-4,11.3-4,8.5,1.3,11.3,4c2.8,2.7,4.1,6.6,4.1,11.7v10c0,5.3-1.3,9.3-4.1,11.7s-6.6,4-11.3,4ZM23.6,89.2c2.8,0,4.9-.8,6.2-2.3s2.1-3.7,2.1-6.6v-10.6c0-2.8-.8-5-2.3-6.6-1.5-1.5-3.6-2.3-6.1-2.3s-4.8.8-6.1,2.3c-1.3,1.5-2.3,3.7-2.3,6.6v10.6c0,3.1.8,5.3,2.1,6.8s3.5,2.3,6.2,2.3h0c0-.1,0-.1,0-.1Z"/>
    <path class="cls-2" d="M59.2,95.6c-3.1,0-5.7-.4-8.1-1.3s-4.1-2.3-5.4-4-1.9-3.7-1.9-6.1v-.8c0-1.9.4-3.5.9-4.5s1.5-2.1,2.5-2.8,1.9-1.2,2.8-1.5v-.9c-.9-.4-1.7-.8-2.7-1.5-.9-.8-1.5-1.5-2.1-2.7s-.8-2.5-.8-4.1v-.8c0-2.1.5-4,1.9-5.4,1.2-1.5,3.1-2.8,5.3-3.7,2.3-.9,4.9-1.3,7.7-1.3s5.7.4,7.7,1.3c2.3.9,4,2.1,5.3,3.7,1.3,1.5,1.9,3.5,1.9,5.4v.8c0,1.5-.1,3.1-.8,4.1-.5,1.2-1.3,2.1-2.1,2.7-.8.8-1.7,1.2-2.7,1.5v.9c.9.1,1.9.8,2.8,1.5.9.8,1.7,1.7,2.5,2.8.5,1.2.9,2.7.9,4.5v.8c0,2.3-.5,4.4-1.9,6.1-1.3,1.7-3.2,3.1-5.4,4s-4.9,1.3-8.1,1.3h-.4.1ZM59.2,89.2c2.7,0,4.5-.5,6.1-1.5s2.1-2.3,2.1-4v-.4c0-1.7-.8-3.1-2.1-4s-3.5-1.5-6.1-1.5-4.8.5-6.1,1.5-2.1,2.3-2.1,4v.4c0,1.7.8,3.1,2.1,4s3.5,1.5,6.1,1.5h0ZM59.2,71.1c2.5,0,4.4-.4,5.7-1.3s2.1-2.1,2.1-3.7v-.4c0-1.5-.8-2.8-2.1-3.7s-3.2-1.3-5.4-1.3-4.1.4-5.4,1.3-2.1,2.1-2.1,3.7v.4c0,1.5.5,2.8,2.1,3.7,1.3.9,3.2,1.3,5.7,1.3h-.5Z"/>
    <path class="cls-2" d="M93.2,95.6c-3.1,0-5.7-.4-8.1-1.3s-4.1-2.3-5.4-4-1.9-3.7-1.9-6.1v-.8c0-1.9.4-3.5.9-4.5s1.5-2.1,2.5-2.8,1.9-1.2,2.8-1.5v-.9c-.9-.4-1.7-.8-2.7-1.5-.9-.8-1.5-1.5-2.1-2.7s-.8-2.5-.8-4.1v-.8c0-2.1.5-4,1.9-5.4,1.2-1.5,3.1-2.8,5.3-3.7s4.9-1.3,7.7-1.3,5.7.4,7.7,1.3c2.3.9,4,2.1,5.3,3.7,1.3,1.5,1.9,3.5,1.9,5.4v.8c0,1.5-.1,3.1-.8,4.1s-1.3,2.1-2.1,2.7-1.7,1.2-2.7,1.5v.9c.9.1,1.9.8,2.8,1.5.9.8,1.7,1.7,2.5,2.8.5,1.2.9,2.7.9,4.5v.8c0,2.3-.5,4.4-1.9,6.1-1.3,1.7-3.2,3.1-5.4,4s-5,1.3-8.1,1.3h-.4.1ZM93.2,89.2c2.7,0,4.5-.5,6.1-1.5s2.1-2.3,2.1-4v-.4c0-1.7-.8-3.1-2.1-4s-3.5-1.5-6.1-1.5-4.8.5-6.1,1.5-2.1,2.3-2.1,4v.4c0,1.7.8,3.1,2.1,4s3.5,1.5,6.1,1.5h0ZM93.2,71.1c2.5,0,4.4-.4,5.7-1.3s2.1-2.1,2.1-3.7v-.4c0-1.5-.8-2.8-2.1-3.7s-3.2-1.3-5.4-1.3-4.1.4-5.4,1.3-2.1,2.1-2.1,3.7v.4c0,1.5.5,2.8,2.1,3.7,1.3.9,3.2,1.3,5.7,1.3h-.5Z"/>
    <path class="cls-2" d="M127.6,95.6c-3.1,0-5.8-.5-8.1-1.7-2.3-1.2-4-2.7-5.3-4.8s-1.9-4.4-1.9-7v-.5h7.4v.5c0,1.9.5,3.6,1.9,4.9s3.2,2.1,5.7,2.1,4.4-.8,5.8-2.1,2.1-3.1,2.1-5.3v-.5c0-2.1-.8-3.7-2.1-5s-3.1-1.9-5-1.9-2.1,0-2.7.4c-.8.4-1.3.8-1.7,1.2s-.8.9-1.2,1.3h-8.9v-22.2h27.2v6.6h-19.9v9.7h.9c.4-.5.9-.9,1.5-1.5.5-.4,1.5-.8,2.5-1.2.9-.4,2.3-.4,3.6-.4,2.3,0,4.5.5,6.4,1.5s3.5,2.5,4.5,4.4,1.7,4.4,1.7,7v.8c0,2.8-.5,5.3-1.7,7.4s-2.8,3.6-5,4.8-4.9,1.7-8,1.7h.1v-.3q.1,0,.1,0Z"/>
  </g>
</svg>