<?xml version="1.0" encoding="UTF-8"?>
<svg xmlns="http://www.w3.org/2000/svg" version="1.1" viewBox="0 0 1920 473">
  <defs>
    <style>
      .cls-1 {
        fill: #5b00db;
      }
    </style>
  </defs>
  <!-- Generator: Adobe Illustrator 28.7.1, SVG Export Plug-In . SVG Version: 1.2.0 Build 142)  -->
  <g>
    <g id="Livello_1">
      <path class="cls-1" d="M237.6,655.1c-71.7,0-129.2-19.8-172.6-59.4C21.7,556.1,0,496.1,0,415.8v-152.6C0,185.1,21.7,125.7,65,84.9c43.4-40.8,100.9-61.1,172.6-61.1s129.9,20.4,173,61.1c43.1,40.8,64.6,100.2,64.6,178.2v152.6c0,80.4-21.5,140.4-64.6,179.9-43.1,39.6-100.7,59.4-173,59.4h0ZM237.6,556.2c43.4,0,75.3-11.8,95.8-35.6,20.5-23.7,30.8-57.5,30.8-101.5v-161.3c0-44.5-11.4-78.2-34.3-101-22.8-22.8-53.6-34.3-92.4-34.3s-71,11.9-93.2,35.6c-22.3,23.7-33.4,57-33.4,99.7v161.3c0,45.7,10.5,79.9,31.7,102.8,21.1,22.8,52.8,34.3,95,34.3h0Z"/>
      <path class="cls-1" d="M735.4,655.1c-46.3,0-87.2-6.9-122.7-20.8-35.6-13.9-63.3-34-83.3-60.3-19.9-26.3-29.9-57.4-29.9-93.2v-10.4c0-27.8,4.9-50.7,14.7-68.9,9.8-18.2,22.1-32.5,36.9-42.9,14.7-10.4,28.8-17.6,42.1-21.7v-15.6c-13.3-4.6-26.6-12.1-39.9-22.5-13.3-10.4-24.1-24.3-32.5-41.6-8.4-17.3-12.6-38.2-12.6-62.4v-10.4c0-31.8,9.4-59.7,28.2-83.7s45.2-42.8,79.4-56.4c34.1-13.6,74-20.4,119.7-20.4s85.6,6.8,119.7,20.4c34.1,13.6,60.6,32.4,79.4,56.4,18.8,24,28.2,51.9,28.2,83.7v10.4c0,24.3-4.2,45.1-12.6,62.4-8.4,17.3-19.1,31.2-32.1,41.6s-26.4,17.9-40.3,22.5v15.6c13.9,4.1,28,11.3,42.5,21.7,14.4,10.4,26.6,24.7,36.4,42.9,9.8,18.2,14.7,41.2,14.7,68.9v10.4c0,35.9-10,66.9-29.9,93.2s-47.7,46.4-83.3,60.3c-35.6,13.9-76.5,20.8-122.7,20.8h-.1ZM735.4,556.2c39.9,0,70.7-7.7,92.4-23s32.5-35.7,32.5-61.1v-6.9c0-25.4-10.6-45.8-31.7-61.1-21.1-15.3-52.2-23-93.2-23s-71.4,7.7-92.8,23c-21.4,15.3-32.1,35.7-32.1,61.1v6.9c0,25.4,10.8,45.8,32.5,61.1,21.7,15.3,52.5,23,92.4,23h0ZM735.4,282.2c37,0,65.6-6.6,85.9-19.9,20.2-13.3,30.4-32.1,30.4-56.4v-6.9c0-24.3-10.4-43.1-31.2-56.4-20.8-13.3-49.1-19.9-85-19.9s-64.2,6.7-85,19.9c-20.8,13.3-31.2,32.1-31.2,56.4v6.9c0,24.3,10.1,43.1,30.4,56.4,20.2,13.3,48.8,19.9,85.9,19.9h-.2Z"/>
      <path class="cls-1" d="M1212.4,655.1c-46.3,0-87.2-6.9-122.7-20.8-35.6-13.9-63.3-34-83.3-60.3-19.9-26.3-29.9-57.4-29.9-93.2v-10.4c0-27.8,4.9-50.7,14.7-68.9,9.8-18.2,22.1-32.5,36.9-42.9,14.7-10.4,28.8-17.6,42.1-21.7v-15.6c-13.3-4.6-26.6-12.1-39.9-22.5-13.3-10.4-24.1-24.3-32.5-41.6-8.4-17.3-12.6-38.2-12.6-62.4v-10.4c0-31.8,9.4-59.7,28.2-83.7s45.2-42.8,79.4-56.4c34.1-13.6,74-20.4,119.7-20.4s85.6,6.8,119.7,20.4,60.6,32.4,79.3,56.4c18.8,24,28.2,51.9,28.2,83.7v10.4c0,24.3-4.2,45.1-12.6,62.4s-19.1,31.2-32.1,41.6-26.5,17.9-40.3,22.5v15.6c13.9,4.1,28,11.3,42.5,21.7,14.4,10.4,26.6,24.7,36.4,42.9,9.8,18.2,14.7,41.2,14.7,68.9v10.4c0,35.9-10,66.9-29.9,93.2s-47.7,46.4-83.3,60.3-76.5,20.8-122.7,20.8h0ZM1212.4,556.2c39.9,0,70.7-7.7,92.4-23,21.7-15.3,32.5-35.7,32.5-61.1v-6.9c0-25.4-10.6-45.8-31.7-61.1-21.1-15.3-52.2-23-93.2-23s-71.4,7.7-92.8,23-32.1,35.7-32.1,61.1v6.9c0,25.4,10.8,45.8,32.5,61.1,21.7,15.3,52.5,23,92.4,23h0ZM1212.4,282.2c37,0,65.6-6.6,85.9-19.9,20.2-13.3,30.4-32.1,30.4-56.4v-6.9c0-24.3-10.4-43.1-31.2-56.4-20.8-13.3-49.1-19.9-85-19.9s-64.2,6.7-85,19.9c-20.8,13.3-31.2,32.1-31.2,56.4v6.9c0,24.3,10.1,43.1,30.4,56.4,20.2,13.3,48.8,19.9,85.9,19.9h-.2Z"/>
      <path class="cls-1" d="M1691.9,655.1c-47.4,0-88.3-8.4-122.7-25.1-34.4-16.8-60.9-40.5-79.4-71.1s-27.8-66.2-27.8-106.7v-8.7h112.7v7.8c0,28.9,9.7,53.6,29.1,74.1,19.4,20.5,48.1,30.8,86.3,30.8s67.5-10.3,88-30.8,30.8-47.3,30.8-80.2v-8.7c0-32.4-10.3-58.1-30.8-77.2s-46.1-28.6-76.7-28.6-30.7,2.3-41.6,6.9c-11,4.6-19.9,10.4-26.9,17.3s-12.7,13.9-17.3,20.8h-134.4V35.9h414.5v100.6h-303.5v148.3h15.6c5.8-7.5,13.6-14.7,23.4-21.7,9.8-6.9,22.5-12.7,38.2-17.3,15.6-4.6,34.1-6.9,55.5-6.9,35.8,0,68.5,7.5,98,22.5s53,37.2,70.7,66.3c17.6,29.2,26.4,65.2,26.4,108v10.4c0,42.8-9.1,79.8-27.3,111-18.2,31.2-44.4,55.4-78.5,72.4s-74.9,25.6-122.3,25.6h0Z"/>
    </g>
  </g>
</svg>