<?xml version="1.0" encoding="UTF-8"?>
<svg id="Livello_1" data-name="Livello 1" xmlns="http://www.w3.org/2000/svg" version="1.1" viewBox="0 0 113.5 36.6">
  <defs>
    <style>
      .cls-1 {
        fill: #6271ff;
        stroke-width: 0px;
      }
    </style>
  </defs>
  <g>
    <path class="cls-1" d="M13.2,35.8c-4,0-7.2-1.1-9.5-3.4S0,26.8,0,22.6v-8.4c0-4.3,1.2-7.6,3.7-9.9C6.2,2,9.3.9,13.2.9s7.2,1.1,9.5,3.4c2.4,2.2,3.5,5.6,3.5,9.9v8.4c0,4.5-1.1,7.9-3.5,9.9s-5.6,3.4-9.5,3.4ZM13.2,30.4c2.4,0,4.2-.7,5.3-1.9s1.8-3.1,1.8-5.6v-9c0-2.4-.7-4.3-1.9-5.6-1.2-1.2-3-1.9-5.2-1.9s-4,.7-5.2,1.9c-1.1,1.2-1.9,3.1-1.9,5.6v9c0,2.6.7,4.5,1.8,5.7s2.9,1.9,5.3,1.9h0Z"/>
    <path class="cls-1" d="M43.3,35.8c-2.6,0-4.8-.3-6.8-1.1s-3.5-1.9-4.6-3.4-1.6-3.1-1.6-5.2v-.7c0-1.6.3-2.9.8-3.8s1.2-1.8,2.1-2.4,1.6-1,2.4-1.2v-.8c-.8-.3-1.5-.7-2.2-1.2-.8-.7-1.2-1.2-1.8-2.2s-.7-2.1-.7-3.5v-.7c0-1.8.4-3.4,1.6-4.6,1-1.2,2.6-2.4,4.5-3.1,1.9-.8,4.2-1.1,6.5-1.1s4.8.3,6.5,1.1c1.9.8,3.4,1.8,4.5,3.1,1.1,1.2,1.6,2.9,1.6,4.6v.7c0,1.2-.1,2.6-.7,3.5-.4,1-1.1,1.8-1.8,2.2-.7.7-1.5,1-2.2,1.2v.8c.8.1,1.6.7,2.4,1.2.8.7,1.5,1.5,2.1,2.4.4,1,.8,2.2.8,3.8v.7c0,1.9-.4,3.7-1.6,5.2-1.1,1.5-2.7,2.6-4.6,3.4s-4.2,1.1-6.8,1.1h-.3.1ZM43.3,30.4c2.2,0,3.8-.4,5.2-1.2s1.8-1.9,1.8-3.4v-.3c0-1.5-.7-2.6-1.8-3.4s-2.9-1.2-5.2-1.2-4,.4-5.2,1.2-1.8,1.9-1.8,3.4v.3c0,1.5.7,2.6,1.8,3.4s2.9,1.2,5.2,1.2h0ZM43.3,15.1c2.1,0,3.7-.3,4.8-1.1s1.8-1.8,1.8-3.1v-.3c0-1.2-.7-2.4-1.8-3.1s-2.7-1.1-4.6-1.1-3.5.3-4.6,1.1-1.8,1.8-1.8,3.1v.3c0,1.2.4,2.4,1.8,3.1,1.1.8,2.7,1.1,4.8,1.1h-.4Z"/>
    <path class="cls-1" d="M72.1,35.8c-2.6,0-4.8-.3-6.8-1.1s-3.5-1.9-4.6-3.4-1.6-3.1-1.6-5.2v-.7c0-1.6.3-2.9.8-3.8s1.2-1.8,2.1-2.4,1.6-1,2.4-1.2v-.8c-.8-.3-1.5-.7-2.2-1.2-.8-.7-1.2-1.2-1.8-2.2s-.7-2.1-.7-3.5v-.7c0-1.8.4-3.4,1.6-4.6,1-1.2,2.6-2.4,4.5-3.1s4.2-1.1,6.5-1.1,4.8.3,6.5,1.1c1.9.8,3.4,1.8,4.5,3.1,1.1,1.2,1.6,2.9,1.6,4.6v.7c0,1.2-.1,2.6-.7,3.5s-1.1,1.8-1.8,2.2-1.5,1-2.2,1.2v.8c.8.1,1.6.7,2.4,1.2.8.7,1.5,1.5,2.1,2.4.4,1,.8,2.2.8,3.8v.7c0,1.9-.4,3.7-1.6,5.2-1.1,1.5-2.7,2.6-4.6,3.4s-4.3,1.1-6.8,1.1h-.3.1ZM72.1,30.4c2.2,0,3.8-.4,5.2-1.2s1.8-1.9,1.8-3.4v-.3c0-1.5-.7-2.6-1.8-3.4s-2.9-1.2-5.2-1.2-4,.4-5.2,1.2-1.8,1.9-1.8,3.4v.3c0,1.5.7,2.6,1.8,3.4s2.9,1.2,5.2,1.2h0ZM72.1,15.1c2.1,0,3.7-.3,4.8-1.1s1.8-1.8,1.8-3.1v-.3c0-1.2-.7-2.4-1.8-3.1s-2.7-1.1-4.6-1.1-3.5.3-4.6,1.1-1.8,1.8-1.8,3.1v.3c0,1.2.4,2.4,1.8,3.1,1.1.8,2.7,1.1,4.8,1.1h-.4Z"/>
    <path class="cls-1" d="M101.2,35.8c-2.6,0-4.9-.4-6.8-1.5-1.9-1-3.4-2.2-4.5-4s-1.6-3.7-1.6-6v-.4h6.3v.4c0,1.6.4,3,1.6,4.2s2.7,1.8,4.8,1.8,3.7-.7,4.9-1.8,1.8-2.6,1.8-4.5v-.4c0-1.8-.7-3.1-1.8-4.3s-2.6-1.6-4.3-1.6-1.8,0-2.2.3c-.7.3-1.1.7-1.5,1s-.7.8-1,1.1h-7.5V1.4h23v5.6h-16.8v8.2h.8c.3-.4.8-.8,1.2-1.2.4-.3,1.2-.7,2.1-1,.8-.3,1.9-.3,3-.3,1.9,0,3.8.4,5.4,1.2s2.9,2.1,3.8,3.7,1.5,3.7,1.5,6v.7c0,2.4-.4,4.5-1.5,6.3-1,1.8-2.4,3-4.3,4s-4.2,1.5-6.7,1.5h.1v-.2Z"/>
  </g>
  <g>
    <path class="cls-1" d="M13.2,35.8c-4,0-7.2-1.1-9.5-3.4S0,26.8,0,22.6v-8.4c0-4.3,1.2-7.6,3.7-9.9C6.2,2,9.3.9,13.2.9s7.2,1.1,9.5,3.4c2.4,2.2,3.5,5.6,3.5,9.9v8.4c0,4.5-1.1,7.9-3.5,9.9s-5.6,3.4-9.5,3.4ZM13.2,30.4c2.4,0,4.2-.7,5.3-1.9s1.8-3.1,1.8-5.6v-9c0-2.4-.7-4.3-1.9-5.6-1.2-1.2-3-1.9-5.2-1.9s-4,.7-5.2,1.9c-1.1,1.2-1.9,3.1-1.9,5.6v9c0,2.6.7,4.5,1.8,5.7s2.9,1.9,5.3,1.9h0Z"/>
    <path class="cls-1" d="M43.3,35.8c-2.6,0-4.8-.3-6.8-1.1s-3.5-1.9-4.6-3.4-1.6-3.1-1.6-5.2v-.7c0-1.6.3-2.9.8-3.8s1.2-1.8,2.1-2.4,1.6-1,2.4-1.2v-.8c-.8-.3-1.5-.7-2.2-1.2-.8-.7-1.2-1.2-1.8-2.2s-.7-2.1-.7-3.5v-.7c0-1.8.4-3.4,1.6-4.6,1-1.2,2.6-2.4,4.5-3.1,1.9-.8,4.2-1.1,6.5-1.1s4.8.3,6.5,1.1c1.9.8,3.4,1.8,4.5,3.1,1.1,1.2,1.6,2.9,1.6,4.6v.7c0,1.2-.1,2.6-.7,3.5-.4,1-1.1,1.8-1.8,2.2-.7.7-1.5,1-2.2,1.2v.8c.8.1,1.6.7,2.4,1.2.8.7,1.5,1.5,2.1,2.4.4,1,.8,2.2.8,3.8v.7c0,1.9-.4,3.7-1.6,5.2-1.1,1.5-2.7,2.6-4.6,3.4s-4.2,1.1-6.8,1.1h-.3.1ZM43.3,30.4c2.2,0,3.8-.4,5.2-1.2s1.8-1.9,1.8-3.4v-.3c0-1.5-.7-2.6-1.8-3.4s-2.9-1.2-5.2-1.2-4,.4-5.2,1.2-1.8,1.9-1.8,3.4v.3c0,1.5.7,2.6,1.8,3.4s2.9,1.2,5.2,1.2h0ZM43.3,15.1c2.1,0,3.7-.3,4.8-1.1s1.8-1.8,1.8-3.1v-.3c0-1.2-.7-2.4-1.8-3.1s-2.7-1.1-4.6-1.1-3.5.3-4.6,1.1-1.8,1.8-1.8,3.1v.3c0,1.2.4,2.4,1.8,3.1,1.1.8,2.7,1.1,4.8,1.1h-.4Z"/>
    <path class="cls-1" d="M72.1,35.8c-2.6,0-4.8-.3-6.8-1.1s-3.5-1.9-4.6-3.4-1.6-3.1-1.6-5.2v-.7c0-1.6.3-2.9.8-3.8s1.2-1.8,2.1-2.4,1.6-1,2.4-1.2v-.8c-.8-.3-1.5-.7-2.2-1.2-.8-.7-1.2-1.2-1.8-2.2s-.7-2.1-.7-3.5v-.7c0-1.8.4-3.4,1.6-4.6,1-1.2,2.6-2.4,4.5-3.1s4.2-1.1,6.5-1.1,4.8.3,6.5,1.1c1.9.8,3.4,1.8,4.5,3.1,1.1,1.2,1.6,2.9,1.6,4.6v.7c0,1.2-.1,2.6-.7,3.5s-1.1,1.8-1.8,2.2-1.5,1-2.2,1.2v.8c.8.1,1.6.7,2.4,1.2.8.7,1.5,1.5,2.1,2.4.4,1,.8,2.2.8,3.8v.7c0,1.9-.4,3.7-1.6,5.2-1.1,1.5-2.7,2.6-4.6,3.4s-4.3,1.1-6.8,1.1h-.3.1ZM72.1,30.4c2.2,0,3.8-.4,5.2-1.2s1.8-1.9,1.8-3.4v-.3c0-1.5-.7-2.6-1.8-3.4s-2.9-1.2-5.2-1.2-4,.4-5.2,1.2-1.8,1.9-1.8,3.4v.3c0,1.5.7,2.6,1.8,3.4s2.9,1.2,5.2,1.2h0ZM72.1,15.1c2.1,0,3.7-.3,4.8-1.1s1.8-1.8,1.8-3.1v-.3c0-1.2-.7-2.4-1.8-3.1s-2.7-1.1-4.6-1.1-3.5.3-4.6,1.1-1.8,1.8-1.8,3.1v.3c0,1.2.4,2.4,1.8,3.1,1.1.8,2.7,1.1,4.8,1.1h-.4Z"/>
    <path class="cls-1" d="M101.2,35.8c-2.6,0-4.9-.4-6.8-1.5-1.9-1-3.4-2.2-4.5-4s-1.6-3.7-1.6-6v-.4h6.3v.4c0,1.6.4,3,1.6,4.2s2.7,1.8,4.8,1.8,3.7-.7,4.9-1.8,1.8-2.6,1.8-4.5v-.4c0-1.8-.7-3.1-1.8-4.3s-2.6-1.6-4.3-1.6-1.8,0-2.2.3c-.7.3-1.1.7-1.5,1s-.7.8-1,1.1h-7.5V1.4h23v5.6h-16.8v8.2h.8c.3-.4.8-.8,1.2-1.2.4-.3,1.2-.7,2.1-1,.8-.3,1.9-.3,3-.3,1.9,0,3.8.4,5.4,1.2s2.9,2.1,3.8,3.7,1.5,3.7,1.5,6v.7c0,2.4-.4,4.5-1.5,6.3-1,1.8-2.4,3-4.3,4s-4.2,1.5-6.7,1.5h.1v-.2Z"/>
  </g>
</svg>