<?xml version="1.0" encoding="UTF-8"?>
<svg id="Livello_1" data-name="Livello 1" xmlns="http://www.w3.org/2000/svg" version="1.1" viewBox="0 0 113.5 36.6">
  <defs>
    <style>
      .cls-1 {
        fill: #6271ff;
        stroke-width: 0px;
      }
    </style>
  </defs>
  <g>
    <path class="cls-1" d="M24.2,36.6c-3.6,0-6.4-1-8.5-3s-3.3-5-3.3-8.8v-7.5c0-3.8,1.1-6.8,3.3-8.8s5-3,8.5-3,6.4,1,8.5,3,3.1,5,3.1,8.8v7.5c0,4-1,7-3.1,8.8s-5,3-8.5,3ZM24.2,31.8c2.1,0,3.7-.6,4.7-1.7s1.6-2.8,1.6-5v-8c0-2.1-.6-3.8-1.7-5-1.1-1.1-2.7-1.7-4.6-1.7s-3.6.6-4.6,1.7c-1,1.1-1.7,2.8-1.7,5v8c0,2.3.6,4,1.6,5.1,1,1.1,2.6,1.7,4.7,1.7h0Z"/>
    <path class="cls-1" d="M51,36.6c-2.3,0-4.3-.3-6.1-1s-3.1-1.7-4.1-3c-1-1.3-1.4-2.8-1.4-4.6v-.6c0-1.4.3-2.6.7-3.4s1.1-1.6,1.9-2.1,1.4-.9,2.1-1.1v-.7c-.7-.3-1.3-.6-2-1.1-.7-.6-1.1-1.1-1.6-2s-.6-1.9-.6-3.1v-.6c0-1.6.4-3,1.4-4.1.9-1.1,2.3-2.1,4-2.8,1.7-.7,3.7-1,5.8-1s4.3.3,5.8,1c1.7.7,3,1.6,4,2.8,1,1.1,1.4,2.6,1.4,4.1v.6c0,1.1-.1,2.3-.6,3.1-.4.9-1,1.6-1.6,2-.6.6-1.3.9-2,1.1v.7c.7.1,1.4.6,2.1,1.1.7.6,1.3,1.3,1.9,2.1.4.9.7,2,.7,3.4v.6c0,1.7-.4,3.3-1.4,4.6s-2.4,2.3-4.1,3-3.7,1-6.1,1h-.3ZM51,31.8c2,0,3.4-.4,4.6-1.1s1.6-1.7,1.6-3v-.3c0-1.3-.6-2.3-1.6-3-1-.7-2.6-1.1-4.6-1.1s-3.6.4-4.6,1.1-1.6,1.7-1.6,3v.3c0,1.3.6,2.3,1.6,3s2.6,1.1,4.6,1.1h0ZM51,18.2c1.9,0,3.3-.3,4.3-1s1.6-1.6,1.6-2.8v-.3c0-1.1-.6-2.1-1.6-2.8s-2.4-1-4.1-1-3.1.3-4.1,1-1.6,1.6-1.6,2.8v.3c0,1.1.4,2.1,1.6,2.8,1,.7,2.4,1,4.3,1h-.3Z"/>
    <path class="cls-1" d="M76.6,36.6c-2.3,0-4.3-.3-6.1-1s-3.1-1.7-4.1-3-1.4-2.8-1.4-4.6v-.6c0-1.4.3-2.6.7-3.4s1.1-1.6,1.9-2.1,1.4-.9,2.1-1.1v-.7c-.7-.3-1.3-.6-2-1.1-.7-.6-1.1-1.1-1.6-2s-.6-1.9-.6-3.1v-.6c0-1.6.4-3,1.4-4.1.9-1.1,2.3-2.1,4-2.8s3.7-1,5.8-1,4.3.3,5.8,1c1.7.7,3,1.6,4,2.8,1,1.1,1.4,2.6,1.4,4.1v.6c0,1.1-.1,2.3-.6,3.1s-1,1.6-1.6,2-1.3.9-2,1.1v.7c.7.1,1.4.6,2.1,1.1.7.6,1.3,1.3,1.9,2.1.4.9.7,2,.7,3.4v.6c0,1.7-.4,3.3-1.4,4.6s-2.4,2.3-4.1,3-3.8,1-6.1,1h-.3ZM76.6,31.8c2,0,3.4-.4,4.6-1.1s1.6-1.7,1.6-3v-.3c0-1.3-.6-2.3-1.6-3-1-.7-2.6-1.1-4.6-1.1s-3.6.4-4.6,1.1-1.6,1.7-1.6,3v.3c0,1.3.6,2.3,1.6,3s2.6,1.1,4.6,1.1h0ZM76.6,18.2c1.9,0,3.3-.3,4.3-1s1.6-1.6,1.6-2.8v-.3c0-1.1-.6-2.1-1.6-2.8-1-.7-2.4-1-4.1-1s-3.1.3-4.1,1-1.6,1.6-1.6,2.8v.3c0,1.1.4,2.1,1.6,2.8,1,.7,2.4,1,4.3,1h-.3Z"/>
    <path class="cls-1" d="M102.5,36.6c-2.3,0-4.4-.4-6.1-1.3-1.7-.9-3-2-4-3.6s-1.4-3.3-1.4-5.3v-.4h5.6v.4c0,1.4.4,2.7,1.4,3.7s2.4,1.6,4.3,1.6,3.3-.6,4.4-1.6,1.6-2.3,1.6-4v-.4c0-1.6-.6-2.8-1.6-3.8s-2.3-1.4-3.8-1.4-1.6,0-2,.3c-.6.3-1,.6-1.3.9s-.6.7-.9,1h-6.7V6h20.5v5h-15v7.3h.7c.3-.4.7-.7,1.1-1.1.4-.3,1.1-.6,1.9-.9.7-.3,1.7-.3,2.7-.3,1.7,0,3.4.4,4.8,1.1s2.6,1.9,3.4,3.3,1.3,3.3,1.3,5.3v.6c0,2.1-.4,4-1.3,5.6s-2.1,2.7-3.8,3.6-3.7,1.3-6,1.3h.1Z"/>
  </g>
  <path class="cls-1" d="M7.1.1l-.4,4.1,4.1-1.1.4,2.8-3.8.3,2.6,3.3-2.6,1.3-1.7-3.6-1.6,3.4-2.7-1.3,2.4-3.3-3.8-.3.4-2.8,4.1,1.1-.4-4.1h3,0Z"/>
</svg>