<?xml version="1.0" encoding="UTF-8"?>
<svg id="Livello_1" xmlns="http://www.w3.org/2000/svg" version="1.1" viewBox="0 0 113.5 36.6">
  <!-- Generator: Adobe Illustrator 29.0.0, SVG Export Plug-In . SVG Version: 2.1.0 Build 186)  -->
  <defs>
    <style>
      .st0 {
        fill: #5b00db;
      }
    </style>
  </defs>
  <path class="st0" d="M15.7,36.2c-4.1,0-7.3-1.1-9.8-3.4-2.5-2.3-3.7-5.7-3.7-10.2v-8.7c0-4.4,1.2-7.8,3.7-10.1C8.3,1.5,11.6.4,15.7.4s7.4,1.2,9.8,3.5c2.4,2.3,3.7,5.7,3.7,10.1v8.7c0,4.6-1.2,8-3.7,10.2-2.4,2.3-5.7,3.4-9.8,3.4ZM15.7,30.6c2.5,0,4.3-.7,5.4-2,1.2-1.3,1.8-3.3,1.8-5.8v-9.2c0-2.5-.6-4.4-1.9-5.7-1.3-1.3-3-1.9-5.3-1.9s-4,.7-5.3,2c-1.3,1.3-1.9,3.2-1.9,5.7v9.2c0,2.6.6,4.5,1.8,5.8,1.2,1.3,3,1.9,5.4,1.9Z"/>
  <path class="st0" d="M44,36.2c-2.6,0-5-.4-7-1.2-2-.8-3.6-1.9-4.7-3.4-1.1-1.5-1.7-3.3-1.7-5.3v-.6c0-1.6.3-2.9.8-3.9.6-1,1.3-1.8,2.1-2.4.8-.6,1.6-1,2.4-1.2v-.9c-.8-.3-1.5-.7-2.3-1.3-.8-.6-1.4-1.4-1.8-2.4-.5-1-.7-2.2-.7-3.6v-.6c0-1.8.5-3.4,1.6-4.8,1.1-1.4,2.6-2.4,4.5-3.2,1.9-.8,4.2-1.2,6.8-1.2s4.9.4,6.8,1.2c1.9.8,3.4,1.8,4.5,3.2,1.1,1.4,1.6,3,1.6,4.8v.6c0,1.4-.2,2.6-.7,3.6-.5,1-1.1,1.8-1.8,2.4-.7.6-1.5,1-2.3,1.3v.9c.8.2,1.6.6,2.4,1.2.8.6,1.5,1.4,2.1,2.4.6,1,.8,2.3.8,3.9v.6c0,2-.6,3.8-1.7,5.3-1.1,1.5-2.7,2.6-4.7,3.4-2,.8-4.3,1.2-7,1.2ZM44,30.6c2.3,0,4-.4,5.3-1.3,1.2-.9,1.8-2,1.8-3.5v-.4c0-1.4-.6-2.6-1.8-3.5-1.2-.9-3-1.3-5.3-1.3s-4.1.4-5.3,1.3c-1.2.9-1.8,2-1.8,3.5v.4c0,1.4.6,2.6,1.8,3.5,1.2.9,3,1.3,5.3,1.3ZM44,15c2.1,0,3.7-.4,4.9-1.1,1.2-.8,1.7-1.8,1.7-3.2v-.4c0-1.4-.6-2.4-1.8-3.2-1.2-.8-2.8-1.1-4.8-1.1s-3.6.4-4.8,1.1c-1.2.8-1.8,1.8-1.8,3.2v.4c0,1.4.6,2.4,1.7,3.2,1.2.8,2.8,1.1,4.9,1.1Z"/>
  <path class="st0" d="M71.1,36.2c-2.6,0-5-.4-7-1.2s-3.6-1.9-4.7-3.4c-1.1-1.5-1.7-3.3-1.7-5.3v-.6c0-1.6.3-2.9.8-3.9.6-1,1.3-1.8,2.1-2.4.8-.6,1.6-1,2.4-1.2v-.9c-.8-.3-1.5-.7-2.3-1.3-.8-.6-1.4-1.4-1.8-2.4-.5-1-.7-2.2-.7-3.6v-.6c0-1.8.5-3.4,1.6-4.8,1.1-1.4,2.6-2.4,4.5-3.2,1.9-.8,4.2-1.2,6.8-1.2s4.9.4,6.8,1.2c1.9.8,3.4,1.8,4.5,3.2,1.1,1.4,1.6,3,1.6,4.8v.6c0,1.4-.2,2.6-.7,3.6-.5,1-1.1,1.8-1.8,2.4-.7.6-1.5,1-2.3,1.3v.9c.8.2,1.6.6,2.4,1.2.8.6,1.5,1.4,2.1,2.4.6,1,.8,2.3.8,3.9v.6c0,2-.6,3.8-1.7,5.3-1.1,1.5-2.7,2.6-4.7,3.4s-4.3,1.2-7,1.2ZM71.1,30.6c2.3,0,4-.4,5.3-1.3,1.2-.9,1.8-2,1.8-3.5v-.4c0-1.4-.6-2.6-1.8-3.5-1.2-.9-3-1.3-5.3-1.3s-4.1.4-5.3,1.3c-1.2.9-1.8,2-1.8,3.5v.4c0,1.4.6,2.6,1.8,3.5,1.2.9,3,1.3,5.3,1.3ZM71.1,15c2.1,0,3.7-.4,4.9-1.1,1.2-.8,1.7-1.8,1.7-3.2v-.4c0-1.4-.6-2.4-1.8-3.2-1.2-.8-2.8-1.1-4.8-1.1s-3.6.4-4.8,1.1c-1.2.8-1.8,1.8-1.8,3.2v.4c0,1.4.6,2.4,1.7,3.2,1.2.8,2.8,1.1,4.9,1.1Z"/>
  <path class="st0" d="M98.4,36.2c-2.7,0-5-.5-7-1.4-2-1-3.5-2.3-4.5-4-1.1-1.7-1.6-3.8-1.6-6.1v-.5h6.4v.4c0,1.6.6,3,1.7,4.2,1.1,1.2,2.7,1.8,4.9,1.8s3.8-.6,5-1.8,1.8-2.7,1.8-4.6v-.5c0-1.8-.6-3.3-1.8-4.4-1.2-1.1-2.6-1.6-4.4-1.6s-1.7.1-2.4.4c-.6.3-1.1.6-1.5,1s-.7.8-1,1.2h-7.6V1h23.6v5.7h-17.3v8.4h.9c.3-.4.8-.8,1.3-1.2.6-.4,1.3-.7,2.2-1,.9-.3,1.9-.4,3.2-.4,2,0,3.9.4,5.6,1.3,1.7.9,3,2.1,4,3.8,1,1.7,1.5,3.7,1.5,6.1v.6c0,2.4-.5,4.5-1.6,6.3s-2.5,3.1-4.5,4.1c-1.9,1-4.3,1.5-7,1.5Z"/>
</svg>