<?xml version="1.0" encoding="UTF-8"?>
<svg id="Livello_1" data-name="Livello 1" xmlns="http://www.w3.org/2000/svg" version="1.1" viewBox="0 0 801.6 257.3">
  <defs>
    <style>
      .cls-1 {
        fill: #6271ff;
        stroke-width: 0px;
      }
    </style>
  </defs>
  <g>
    <path class="cls-1" d="M169.8,257.3c-25,0-45-6.9-60.2-20.7-15.1-13.8-22.7-34.7-22.7-62.7v-53.2c0-27.2,7.6-47.9,22.7-62.1s35.2-21.3,60.2-21.3,45.3,7.1,60.3,21.3c15,14.2,22.5,34.9,22.5,62.1v53.2c0,28-7.5,48.9-22.5,62.7-15,13.8-35.1,20.7-60.3,20.7ZM169.8,222.8c15.1,0,26.2-4.1,33.4-12.4s10.7-20,10.7-35.4v-56.2c0-15.5-4-27.2-11.9-35.2-8-8-18.7-11.9-32.2-11.9s-24.7,4.1-32.5,12.4c-7.8,8.3-11.6,19.9-11.6,34.8v56.2c0,15.9,3.7,27.9,11,35.8,7.4,8,18.4,11.9,33.1,11.9h0Z"/>
    <path class="cls-1" d="M358.4,257.3c-16.1,0-30.4-2.4-42.8-7.3s-22.1-11.8-29-21c-7-9.2-10.4-20-10.4-32.5v-3.6c0-9.7,1.7-17.7,5.1-24,3.4-6.3,7.7-11.3,12.9-15s10-6.1,14.7-7.6v-5.4c-4.6-1.6-9.3-4.2-13.9-7.9-4.6-3.6-8.4-8.5-11.3-14.5-2.9-6-4.4-13.3-4.4-21.8v-3.6c0-11.1,3.3-20.8,9.8-29.2,6.5-8.4,15.8-14.9,27.7-19.6,11.9-4.7,25.8-7.1,41.7-7.1s29.8,2.4,41.7,7.1c11.9,4.7,21.1,11.3,27.7,19.6s9.8,18.1,9.8,29.2v3.6c0,8.5-1.5,15.7-4.4,21.8-2.9,6-6.6,10.9-11.2,14.5-4.5,3.6-9.2,6.2-14.1,7.9v5.4c4.8,1.4,9.8,3.9,14.8,7.6,5,3.6,9.3,8.6,12.7,15,3.4,6.3,5.1,14.4,5.1,24v3.6c0,12.5-3.5,23.3-10.4,32.5s-16.6,16.2-29,21c-12.4,4.8-26.6,7.3-42.8,7.3h0ZM358.4,222.8c13.9,0,24.6-2.7,32.2-8,7.6-5.3,11.3-12.4,11.3-21.3v-2.4c0-8.9-3.7-16-11-21.3-7.4-5.3-18.2-8-32.5-8s-24.9,2.7-32.4,8-11.2,12.5-11.2,21.3v2.4c0,8.9,3.8,16,11.3,21.3s18.3,8,32.2,8ZM358.4,127.3c12.9,0,22.9-2.3,29.9-7,7-4.6,10.6-11.2,10.6-19.6v-2.4c0-8.5-3.6-15-10.9-19.6-7.3-4.6-17.1-7-29.6-7s-22.4,2.3-29.6,7c-7.3,4.6-10.9,11.2-10.9,19.6v2.4c0,8.5,3.5,15,10.6,19.6,7,4.6,17,7,29.9,7h0Z"/>
    <path class="cls-1" d="M539.8,257.3c-16.1,0-30.4-2.4-42.8-7.3s-22.1-11.8-29-21-10.4-20-10.4-32.5v-3.6c0-9.7,1.7-17.7,5.1-24,3.4-6.3,7.7-11.3,12.8-15,5.1-3.6,10-6.1,14.7-7.6v-5.4c-4.6-1.6-9.3-4.2-13.9-7.9-4.6-3.6-8.4-8.5-11.3-14.5-2.9-6-4.4-13.3-4.4-21.8v-3.6c0-11.1,3.3-20.8,9.8-29.2,6.5-8.4,15.8-14.9,27.7-19.6,11.9-4.7,25.8-7.1,41.7-7.1s29.8,2.4,41.7,7.1c11.9,4.7,21.1,11.3,27.7,19.6s9.8,18.1,9.8,29.2v3.6c0,8.5-1.5,15.7-4.4,21.8s-6.7,10.9-11.2,14.5c-4.5,3.6-9.2,6.2-14.1,7.9v5.4c4.8,1.4,9.8,3.9,14.8,7.6,5,3.6,9.3,8.6,12.7,15,3.4,6.3,5.1,14.4,5.1,24v3.6c0,12.5-3.5,23.3-10.4,32.5s-16.6,16.2-29,21-26.7,7.3-42.8,7.3h0ZM539.8,222.8c13.9,0,24.6-2.7,32.2-8,7.6-5.3,11.3-12.4,11.3-21.3v-2.4c0-8.9-3.7-16-11-21.3-7.4-5.3-18.2-8-32.5-8s-24.9,2.7-32.3,8c-7.5,5.3-11.2,12.5-11.2,21.3v2.4c0,8.9,3.8,16,11.3,21.3s18.3,8,32.2,8h0ZM539.8,127.3c12.9,0,22.9-2.3,29.9-7,7-4.6,10.6-11.2,10.6-19.6v-2.4c0-8.5-3.6-15-10.9-19.6-7.3-4.6-17.1-7-29.6-7s-22.4,2.3-29.6,7c-7.3,4.6-10.9,11.2-10.9,19.6v2.4c0,8.5,3.5,15,10.6,19.6,7,4.6,17,7,29.9,7h0Z"/>
    <path class="cls-1" d="M722.1,257.3c-16.5,0-30.8-2.9-42.8-8.8-12-5.8-21.2-14.1-27.7-24.8-6.5-10.7-9.7-23.1-9.7-37.2v-3h39.3v2.7c0,10.1,3.4,18.7,10.1,25.8,6.8,7.2,16.8,10.7,30.1,10.7s23.5-3.6,30.7-10.7,10.7-16.5,10.7-28v-3c0-11.3-3.6-20.2-10.7-26.9-7.2-6.7-16.1-10-26.8-10s-10.7.8-14.5,2.4c-3.8,1.6-7,3.6-9.4,6s-4.4,4.8-6,7.3h-46.9V41.5h144.5v35.1h-105.8v51.7h5.4c2-2.6,4.7-5.1,8.2-7.6,3.4-2.4,7.9-4.4,13.3-6,5.4-1.6,11.9-2.4,19.3-2.4,12.5,0,23.9,2.6,34.2,7.9,10.3,5.2,18.5,13,24.6,23.1,6.2,10.2,9.2,22.7,9.2,37.6v3.6c0,14.9-3.2,27.8-9.5,38.7-6.3,10.9-15.5,19.3-27.4,25.2s-26.1,8.9-42.6,8.9h0Z"/>
  </g>
  <path class="cls-1" d="M49.4,0l-3.3,29.1,29.4-8.3,2.6,19.9-26.8,1.9,17.6,23.5-17.9,9.5-12.3-24.8-10.8,24.6-18.6-9.4,17.5-23.5L0,40.6l3.1-19.8,28.8,8.3L28.6,0h20.8Z"/>
</svg>