<?xml version="1.0" encoding="UTF-8"?>
<svg id="Livello_1" data-name="Livello 1" xmlns="http://www.w3.org/2000/svg" version="1.1" viewBox="0 0 79.7 25.6">
  <defs>
    <style>
      .cls-1 {
        fill: #6271ff;
        stroke-width: 0px;
      }
    </style>
  </defs>
  <g>
    <path class="cls-1" d="M16.9,25.6c-2.5,0-4.5-.7-6-2.1-1.5-1.4-2.3-3.5-2.3-6.2v-5.3c0-2.7.8-4.8,2.3-6.2s3.5-2.1,6-2.1,4.5.7,6,2.1c1.5,1.4,2.2,3.5,2.2,6.2v5.3c0,2.8-.7,4.9-2.2,6.2s-3.5,2.1-6,2.1ZM16.9,22.2c1.5,0,2.6-.4,3.3-1.2s1.1-2,1.1-3.5v-5.6c0-1.5-.4-2.7-1.2-3.5-.8-.8-1.9-1.2-3.2-1.2s-2.5.4-3.2,1.2-1.2,2-1.2,3.5v5.6c0,1.6.4,2.8,1.1,3.6.7.8,1.8,1.2,3.3,1.2h0Z"/>
    <path class="cls-1" d="M35.7,25.6c-1.6,0-3-.2-4.3-.7s-2.2-1.2-2.9-2.1c-.7-.9-1-2-1-3.2v-.4c0-1,.2-1.8.5-2.4s.8-1.1,1.3-1.5,1-.6,1.5-.8v-.5c-.5-.2-.9-.4-1.4-.8-.5-.4-.8-.8-1.1-1.4s-.4-1.3-.4-2.2v-.4c0-1.1.3-2.1,1-2.9.6-.8,1.6-1.5,2.8-2,1.2-.5,2.6-.7,4.1-.7s3,.2,4.1.7c1.2.5,2.1,1.1,2.8,2,.7.8,1,1.8,1,2.9v.4c0,.8-.1,1.6-.4,2.2-.3.6-.7,1.1-1.1,1.4-.4.4-.9.6-1.4.8v.5c.5.1,1,.4,1.5.8.5.4.9.9,1.3,1.5.3.6.5,1.4.5,2.4v.4c0,1.2-.3,2.3-1,3.2s-1.7,1.6-2.9,2.1-2.6.7-4.3.7h0ZM35.7,22.2c1.4,0,2.4-.3,3.2-.8s1.1-1.2,1.1-2.1v-.2c0-.9-.4-1.6-1.1-2.1-.7-.5-1.8-.8-3.2-.8s-2.5.3-3.2.8-1.1,1.2-1.1,2.1v.2c0,.9.4,1.6,1.1,2.1s1.8.8,3.2.8h0ZM35.7,12.7c1.3,0,2.3-.2,3-.7.7-.5,1.1-1.1,1.1-2v-.2c0-.8-.4-1.5-1.1-2s-1.7-.7-2.9-.7-2.2.2-2.9.7c-.7.5-1.1,1.1-1.1,2v.2c0,.8.3,1.5,1.1,2,.7.5,1.7.7,3,.7h0Z"/>
    <path class="cls-1" d="M53.7,25.6c-1.6,0-3-.2-4.3-.7s-2.2-1.2-2.9-2.1-1-2-1-3.2v-.4c0-1,.2-1.8.5-2.4s.8-1.1,1.3-1.5c.5-.4,1-.6,1.5-.8v-.5c-.5-.2-.9-.4-1.4-.8-.5-.4-.8-.8-1.1-1.4s-.4-1.3-.4-2.2v-.4c0-1.1.3-2.1,1-2.9.6-.8,1.6-1.5,2.8-2,1.2-.5,2.6-.7,4.1-.7s3,.2,4.1.7c1.2.5,2.1,1.1,2.8,2,.7.8,1,1.8,1,2.9v.4c0,.8-.1,1.6-.4,2.2s-.7,1.1-1.1,1.4-.9.6-1.4.8v.5c.5.1,1,.4,1.5.8.5.4.9.9,1.3,1.5.3.6.5,1.4.5,2.4v.4c0,1.2-.3,2.3-1,3.2s-1.7,1.6-2.9,2.1-2.7.7-4.3.7h0ZM53.7,22.2c1.4,0,2.4-.3,3.2-.8.8-.5,1.1-1.2,1.1-2.1v-.2c0-.9-.4-1.6-1.1-2.1-.7-.5-1.8-.8-3.2-.8s-2.5.3-3.2.8c-.7.5-1.1,1.2-1.1,2.1v.2c0,.9.4,1.6,1.1,2.1s1.8.8,3.2.8h0ZM53.7,12.7c1.3,0,2.3-.2,3-.7.7-.5,1.1-1.1,1.1-2v-.2c0-.8-.4-1.5-1.1-2-.7-.5-1.7-.7-2.9-.7s-2.2.2-2.9.7c-.7.5-1.1,1.1-1.1,2v.2c0,.8.3,1.5,1.1,2,.7.5,1.7.7,3,.7h0Z"/>
    <path class="cls-1" d="M71.9,25.6c-1.6,0-3.1-.3-4.3-.9-1.2-.6-2.1-1.4-2.8-2.5s-1-2.3-1-3.7v-.3h3.9v.3c0,1,.3,1.9,1,2.6.7.7,1.7,1.1,3,1.1s2.3-.4,3.1-1.1,1.1-1.6,1.1-2.8v-.3c0-1.1-.4-2-1.1-2.7-.7-.7-1.6-1-2.7-1s-1.1,0-1.4.2c-.4.2-.7.4-.9.6s-.4.5-.6.7h-4.7V4.1h14.4v3.5h-10.5v5.1h.5c.2-.3.5-.5.8-.8.3-.2.8-.4,1.3-.6.5-.2,1.2-.2,1.9-.2,1.2,0,2.4.3,3.4.8,1,.5,1.8,1.3,2.4,2.3.6,1,.9,2.3.9,3.7v.4c0,1.5-.3,2.8-.9,3.9s-1.5,1.9-2.7,2.5-2.6.9-4.2.9h0Z"/>
  </g>
  <path class="cls-1" d="M4.9,0l-.3,2.9,2.9-.8.3,2-2.7.2,1.8,2.3-1.8.9-1.2-2.5-1.1,2.4-1.9-.9,1.7-2.3-2.7-.2.3-2,2.9.8-.3-2.9h2.1Z"/>
</svg>