<?xml version="1.0" encoding="UTF-8"?>
<svg id="Livello_1" xmlns="http://www.w3.org/2000/svg" version="1.1" viewBox="0 0 293.2 126.5">
  <!-- Generator: Adobe Illustrator 29.0.0, SVG Export Plug-In . SVG Version: 2.1.0 Build 186)  -->
  <defs>
    <style>
      .st0 {
        fill: #5b00db;
        stroke: #141414;
        stroke-miterlimit: 10;
        stroke-width: 1.3px;
      }
    </style>
  </defs>
  <g>
    <path class="st0" d="M6.6,12.5c-1.6,0-3.1-.6-4.2-1.6-1.1-1.1-1.7-2.5-1.7-4.2s.6-3.2,1.7-4.2S4.9.8,6.6.8s3.1.6,4.2,1.6c1.1,1.1,1.7,2.5,1.7,4.2s-.6,3.2-1.7,4.2-2.5,1.6-4.2,1.6ZM1.9,53.1V16.7h9.3v36.4H1.9Z"/>
    <path class="st0" d="M30.9,53.1c-2.4,0-4.3-.7-5.8-2.3-1.5-1.5-2.3-3.5-2.3-6v-20.5h-9.1v-7.6h9.1V5.4h9.3v11.3h10v7.6h-10v18.9c0,1.5.6,2.2,2,2.2h7.1v7.6h-10.2Z"/>
    <path class="st0" d="M47.4,24.3v-4.9h2.8c2.3,0,3.4-1.1,3.4-3.4v-2.4h-1.2c-1.9,0-3.6-.6-4.9-1.8-1.3-1.1-1.9-2.7-1.9-4.5s.6-3.6,1.9-4.8,2.9-1.9,4.9-1.9,3.7.6,4.9,1.9c1.3,1.2,1.9,2.9,1.9,5v8.4c0,5.4-2.8,8.2-8.2,8.2h-3.6Z"/>
    <path class="st0" d="M78.2,54.1c-4.7,0-8.6-1.1-11.6-3.1-3-2-4.9-4.9-5.5-8.8l8.5-2.2c.3,1.7.9,3.1,1.7,4.1s1.8,1.7,3,2.1,2.5.6,3.9.6c2.1,0,3.7-.4,4.8-1.1s1.5-1.7,1.5-2.8-.5-2-1.5-2.6c-1-.6-2.5-1.1-4.7-1.5l-2-.4c-2.5-.5-4.9-1.1-7-2s-3.8-2-5-3.6c-1.3-1.5-1.9-3.5-1.9-5.8,0-3.7,1.3-6.4,4-8.3,2.6-1.9,6.1-2.9,10.4-2.9s7.4.9,10.1,2.7c2.7,1.8,4.5,4.1,5.3,7.1l-8.6,2.6c-.4-1.9-1.2-3.2-2.4-4-1.2-.8-2.7-1.1-4.5-1.1s-3.1.3-4.1.9c-.9.6-1.4,1.5-1.4,2.5s.5,2,1.5,2.6c1,.6,2.3,1,4,1.3l2,.4c2.8.5,5.2,1.1,7.5,1.9,2.2.8,4,1.9,5.3,3.4s1.9,3.5,1.9,6c0,3.8-1.4,6.7-4.1,8.8-2.8,2.1-6.5,3.1-11.1,3.1h0Z"/>
    <path class="st0" d="M128.6,54.1c-3.7,0-6.9-.7-9.7-2.2-2.9-1.5-5.1-3.6-6.8-6.4-1.6-2.8-2.5-6.2-2.5-10.1v-1.1c0-3.9.8-7.2,2.5-10.1,1.6-2.8,3.9-4.9,6.8-6.4,2.8-1.5,6.2-2.2,9.7-2.2s6.9.7,9.7,2.2,5.1,3.6,6.8,6.4c1.6,2.8,2.5,6.2,2.5,10.1v1.1c0,3.9-.8,7.2-2.5,10.1-1.6,2.8-3.9,4.9-6.8,6.4-2.9,1.5-6.2,2.2-9.7,2.2ZM128.6,45.9c2.8,0,5.2-.9,7.1-2.8,1.9-1.9,2.8-4.5,2.8-7.9v-.7c0-3.4-.9-6-2.8-7.9s-4.2-2.8-7.1-2.8-5.2.9-7.1,2.8c-1.9,1.9-2.8,4.5-2.8,7.9v.7c0,3.4.9,6,2.8,7.9s4.2,2.8,7.1,2.8Z"/>
    <path class="st0" d="M151.7,53.1V16.7h9.1v4.8h1.3c.6-1.3,1.7-2.5,3.3-3.7s4.1-1.7,7.3-1.7,5.3.6,7.5,1.9c2.1,1.3,3.7,3.1,4.9,5.4,1.1,2.3,1.8,4.9,1.8,8v21.7h-9.3v-20.9c0-2.8-.6-4.8-2-6.2-1.4-1.4-3.2-2-5.8-2s-5,1-6.6,2.8-2.4,4.5-2.4,7.9v18.4h-9.3,0Z"/>
    <path class="st0" d="M192.5,53.1V1.8h9.3v51.3h-9.3Z"/>
    <path class="st0" d="M211.5,67.8v-8h19.8c1.4,0,2-.7,2-2.2v-9.2h-1.3c-.4.8-1,1.6-1.9,2.5s-1.9,1.5-3.4,2c-1.4.6-3.2.8-5.4.8s-5.3-.6-7.5-1.9c-2.1-1.3-3.7-3.1-4.9-5.4-1.1-2.3-1.8-4.9-1.8-7.9v-21.7h9.3v20.9c0,2.8.6,4.8,2,6.2,1.4,1.4,3.2,2,5.8,2s5-1,6.6-2.8,2.4-4.5,2.4-7.9v-18.4h9.3v42.8c0,2.5-.7,4.5-2.2,6-1.5,1.5-3.4,2.3-5.8,2.3h-22.9v-.2Z"/>
  </g>
  <g>
    <path class="st0" d="M152.7,125.9c-6.1,0-10.9-1.7-14.6-5-3.7-3.3-5.5-8.4-5.5-15.2v-12.9c0-6.6,1.9-11.6,5.5-15s8.5-5.2,14.6-5.2,11,1.7,14.6,5.2c3.7,3.4,5.4,8.4,5.4,15v12.9c0,6.8-1.8,11.8-5.4,15.2-3.7,3.3-8.5,5-14.6,5ZM152.7,117.6c3.7,0,6.3-1,8.1-3,1.7-2,2.6-4.9,2.6-8.6v-13.6c0-3.7-1-6.6-2.9-8.5s-4.5-2.9-7.8-2.9-6,1-7.9,3c-1.9,2-2.8,4.8-2.8,8.4v13.6c0,3.9.9,6.7,2.7,8.7,1.8,1.9,4.5,2.9,8,2.9h0Z"/>
    <path class="st0" d="M194,125.9c-3.9,0-7.4-.6-10.4-1.8-3-1.1-5.4-2.8-7.1-5.1-1.7-2.2-2.5-4.9-2.5-7.9v-.9c0-2.4.4-4.3,1.2-5.8s1.9-2.8,3.1-3.7,2.4-1.5,3.6-1.9v-1.3c-1.1-.4-2.3-1.1-3.4-1.9-1.1-.9-2-2-2.8-3.5s-1.1-3.2-1.1-5.3v-.9c0-2.7.8-5,2.4-7.1,1.6-2,3.8-3.7,6.7-4.8,2.8-1.1,6.2-1.7,10.1-1.7s7.2.6,10.1,1.7c2.8,1.1,5.1,2.8,6.7,4.8s2.4,4.4,2.4,7.1v.9c0,2-.3,3.8-1.1,5.3s-1.6,2.6-2.7,3.5-2.3,1.5-3.4,1.9v1.3c1.1.3,2.4,1,3.6,1.9s2.3,2.1,3.1,3.7,1.2,3.5,1.2,5.8v.9c0,3-.8,5.7-2.5,7.9s-4.1,3.9-7.1,5.1-6.5,1.8-10.4,1.8h0ZM194,117.6c3.4,0,6-.6,7.8-1.9,1.9-1.3,2.8-3,2.8-5.2v-.6c0-2.1-.9-3.9-2.7-5.2-1.8-1.3-4.4-1.9-7.9-1.9s-6,.6-7.9,1.9c-1.8,1.3-2.7,3-2.7,5.2v.6c0,2.1.9,3.9,2.8,5.2,1.9,1.3,4.5,1.9,7.8,1.9ZM194,94.4c3.1,0,5.5-.6,7.2-1.7,1.7-1.1,2.6-2.7,2.6-4.8v-.6c0-2-.9-3.7-2.6-4.8-1.8-1.1-4.1-1.7-7.1-1.7s-5.4.6-7.1,1.7c-1.8,1.1-2.6,2.7-2.6,4.8v.6c0,2,.9,3.7,2.6,4.8s4.1,1.7,7.2,1.7h-.2Z"/>
    <path class="st0" d="M233.5,125.9c-3.9,0-7.4-.6-10.4-1.8-3-1.1-5.4-2.8-7.1-5.1-1.7-2.2-2.5-4.9-2.5-7.9v-.9c0-2.4.4-4.3,1.2-5.8s1.9-2.8,3.1-3.7,2.4-1.5,3.6-1.9v-1.3c-1.1-.4-2.3-1.1-3.4-1.9-1.1-.9-2-2-2.8-3.5s-1.1-3.2-1.1-5.3v-.9c0-2.7.8-5,2.4-7.1,1.6-2,3.8-3.7,6.7-4.8,2.8-1.1,6.2-1.7,10.1-1.7s7.2.6,10.1,1.7c2.8,1.1,5.1,2.8,6.7,4.8s2.4,4.4,2.4,7.1v.9c0,2-.3,3.8-1.1,5.3s-1.6,2.6-2.7,3.5-2.3,1.5-3.4,1.9v1.3c1.1.3,2.4,1,3.6,1.9s2.3,2.1,3.1,3.7,1.2,3.5,1.2,5.8v.9c0,3-.8,5.7-2.5,7.9s-4.1,3.9-7.1,5.1-6.5,1.8-10.4,1.8h0ZM233.5,117.6c3.4,0,6-.6,7.8-1.9,1.9-1.3,2.8-3,2.8-5.2v-.6c0-2.1-.9-3.9-2.7-5.2-1.8-1.3-4.4-1.9-7.9-1.9s-6,.6-7.9,1.9c-1.8,1.3-2.7,3-2.7,5.2v.6c0,2.1.9,3.9,2.8,5.2,1.9,1.3,4.5,1.9,7.8,1.9ZM233.5,94.4c3.1,0,5.5-.6,7.2-1.7,1.7-1.1,2.6-2.7,2.6-4.8v-.6c0-2-.9-3.7-2.6-4.8-1.8-1.1-4.1-1.7-7.1-1.7s-5.4.6-7.1,1.7c-1.8,1.1-2.6,2.7-2.6,4.8v.6c0,2,.9,3.7,2.6,4.8s4.1,1.7,7.2,1.7h-.2Z"/>
    <path class="st0" d="M273.3,125.9c-4,0-7.5-.7-10.4-2.1-2.9-1.4-5.1-3.4-6.7-6-1.5-2.6-2.4-5.6-2.4-9v-.7h9.5v.6c0,2.4.8,4.5,2.4,6.2,1.6,1.7,4.1,2.6,7.3,2.6s5.7-.9,7.5-2.6c1.7-1.7,2.6-4,2.6-6.7v-.7c0-2.8-.9-4.9-2.6-6.5s-3.9-2.4-6.5-2.4-2.6.2-3.5.6c-.9.4-1.7.9-2.3,1.5-.6.6-1.1,1.1-1.5,1.8h-11.4v-28.7h35v8.5h-25.6v12.5h1.3c.5-.6,1.1-1.2,1.9-1.9.8-.6,1.9-1.1,3.2-1.5,1.3-.4,2.8-.6,4.7-.6,3,0,5.8.6,8.3,1.9,2.5,1.3,4.5,3.2,6,5.6,1.5,2.4,2.3,5.5,2.3,9.1v.9c0,3.7-.7,6.7-2.3,9.4-1.5,2.6-3.7,4.7-6.7,6.1-2.9,1.5-6.3,2.2-10.3,2.2h0Z"/>
  </g>
</svg>