<?xml version="1.0" encoding="UTF-8"?>
<svg id="Livello_1" xmlns="http://www.w3.org/2000/svg" version="1.1" viewBox="0 0 1920 1049.3">
  <!-- Generator: Adobe Illustrator 29.0.0, SVG Export Plug-In . SVG Version: 2.1.0 Build 186)  -->
  <defs>
    <style>
      .st0 {
        fill: #5b00db;
        stroke: #141414;
        stroke-miterlimit: 10;
        stroke-width: 1.3px;
      }
    </style>
  </defs>
  <g>
    <path class="st0" d="M1565.2,584.5c-2,0-3.8-.7-5.2-2-1.4-1.3-2.1-3.1-2.1-5.2s.7-3.9,2.1-5.2c1.4-1.3,3.1-2,5.2-2s3.8.7,5.2,2c1.4,1.3,2.1,3.1,2.1,5.2s-.7,3.9-2.1,5.2c-1.4,1.3-3.1,2-5.2,2ZM1559.5,634.5v-44.8h11.4v44.8h-11.4Z"/>
    <path class="st0" d="M1595.2,634.5c-2.9,0-5.3-.9-7.2-2.8-1.8-1.8-2.8-4.3-2.8-7.4v-25.3h-11.2v-9.4h11.2v-13.9h11.4v13.9h12.3v9.4h-12.3v23.3c0,1.8.8,2.7,2.5,2.7h8.7v9.4h-12.6Z"/>
    <path class="st0" d="M1615.5,599v-6.1h3.5c2.8,0,4.2-1.4,4.2-4.2v-2.9h-1.5c-2.4,0-4.4-.7-6-2.2-1.6-1.4-2.4-3.3-2.4-5.5s.8-4.4,2.4-5.9c1.6-1.5,3.6-2.3,6-2.3s4.5.8,6,2.3c1.6,1.5,2.3,3.6,2.3,6.2v10.4c0,6.7-3.4,10.1-10.1,10.1h-4.4Z"/>
    <path class="st0" d="M1653.5,635.8c-5.8,0-10.6-1.3-14.3-3.8-3.7-2.5-6-6.1-6.8-10.8l10.5-2.7c.4,2.1,1.1,3.8,2.1,5,1,1.2,2.2,2.1,3.7,2.6,1.5.5,3.1.8,4.8.8,2.6,0,4.6-.5,5.9-1.4,1.3-.9,1.9-2.1,1.9-3.5s-.6-2.5-1.8-3.2c-1.2-.8-3.1-1.4-5.8-1.8l-2.5-.5c-3.1-.6-6-1.4-8.6-2.5-2.6-1.1-4.7-2.5-6.2-4.4-1.6-1.9-2.3-4.3-2.3-7.2,0-4.5,1.6-7.9,4.9-10.2,3.2-2.4,7.5-3.6,12.8-3.6s9.1,1.1,12.5,3.3c3.3,2.2,5.5,5.1,6.5,8.8l-10.6,3.2c-.5-2.3-1.5-3.9-2.9-4.9-1.5-1-3.3-1.4-5.5-1.4s-3.8.4-5,1.1c-1.1.8-1.7,1.8-1.7,3.1s.6,2.5,1.8,3.2c1.2.7,2.8,1.2,4.9,1.6l2.5.5c3.4.6,6.4,1.4,9.2,2.4,2.7,1,4.9,2.4,6.5,4.2,1.6,1.8,2.4,4.3,2.4,7.4,0,4.7-1.7,8.3-5.1,10.9-3.4,2.6-8,3.8-13.7,3.8Z"/>
    <path class="st0" d="M1715.6,635.8c-4.5,0-8.5-.9-12-2.7-3.6-1.8-6.3-4.4-8.4-7.9-2-3.4-3.1-7.6-3.1-12.4v-1.4c0-4.8,1-8.9,3.1-12.4,2-3.4,4.8-6,8.4-7.9,3.5-1.8,7.6-2.7,12-2.7s8.5.9,12,2.7c3.5,1.8,6.3,4.4,8.4,7.9,2,3.4,3.1,7.6,3.1,12.4v1.4c0,4.8-1,8.9-3.1,12.4-2,3.4-4.8,6-8.4,7.9-3.6,1.8-7.6,2.7-12,2.7ZM1715.6,625.7c3.5,0,6.4-1.1,8.7-3.4,2.3-2.3,3.4-5.5,3.4-9.7v-.9c0-4.2-1.1-7.4-3.4-9.7-2.3-2.3-5.2-3.4-8.7-3.4s-6.4,1.1-8.7,3.4c-2.3,2.3-3.4,5.5-3.4,9.7v.9c0,4.2,1.1,7.4,3.4,9.7,2.3,2.3,5.2,3.4,8.7,3.4Z"/>
    <path class="st0" d="M1744.1,634.5v-44.8h11.2v5.9h1.6c.7-1.6,2.1-3.1,4.1-4.5,2-1.4,5-2.1,9-2.1s6.5.8,9.2,2.4c2.6,1.6,4.6,3.8,6.1,6.6,1.4,2.8,2.2,6.1,2.2,9.8v26.7h-11.4v-25.8c0-3.4-.8-5.9-2.5-7.6-1.7-1.7-4-2.5-7.1-2.5s-6.2,1.2-8.1,3.5c-1.9,2.3-2.9,5.6-2.9,9.7v22.7h-11.4Z"/>
    <path class="st0" d="M1794.3,634.5v-63.2h11.4v63.2h-11.4Z"/>
    <path class="st0" d="M1817.8,652.6v-9.9h24.4c1.7,0,2.5-.9,2.5-2.7v-11.3h-1.6c-.5,1-1.2,2-2.3,3.1s-2.4,1.9-4.2,2.5c-1.7.7-4,1-6.7,1s-6.5-.8-9.2-2.4c-2.6-1.6-4.6-3.8-6.1-6.6-1.4-2.8-2.2-6.1-2.2-9.7v-26.7h11.4v25.8c0,3.4.8,5.9,2.5,7.6,1.7,1.7,4,2.5,7.1,2.5s6.2-1.2,8.1-3.5c1.9-2.3,2.9-5.6,2.9-9.7v-22.7h11.4v52.7c0,3.1-.9,5.5-2.7,7.4-1.8,1.8-4.2,2.8-7.2,2.8h-28.2Z"/>
  </g>
  <g>
    <path class="st0" d="M1745.3,724.2c-7.5,0-13.4-2.1-18-6.2-4.5-4.1-6.8-10.4-6.8-18.7v-15.9c0-8.1,2.3-14.3,6.8-18.5s10.5-6.4,18-6.4,13.5,2.1,18,6.4c4.5,4.2,6.7,10.4,6.7,18.5v15.9c0,8.4-2.2,14.6-6.7,18.7-4.5,4.1-10.5,6.2-18,6.2ZM1745.3,714c4.5,0,7.8-1.2,10-3.7,2.1-2.5,3.2-6,3.2-10.6v-16.8c0-4.6-1.2-8.1-3.6-10.5-2.4-2.4-5.6-3.6-9.6-3.6s-7.4,1.2-9.7,3.7c-2.3,2.5-3.5,5.9-3.5,10.4v16.8c0,4.8,1.1,8.3,3.3,10.7,2.2,2.4,5.5,3.6,9.9,3.6Z"/>
    <path class="st0" d="M1796.2,724.2c-4.8,0-9.1-.7-12.8-2.2-3.7-1.4-6.6-3.5-8.7-6.3-2.1-2.7-3.1-6-3.1-9.7v-1.1c0-2.9.5-5.3,1.5-7.2,1-1.9,2.3-3.4,3.8-4.5s3-1.8,4.4-2.3v-1.6c-1.4-.5-2.8-1.3-4.2-2.3-1.4-1.1-2.5-2.5-3.4-4.3-.9-1.8-1.3-4-1.3-6.5v-1.1c0-3.3,1-6.2,2.9-8.7,2-2.5,4.7-4.5,8.3-5.9,3.5-1.4,7.7-2.1,12.5-2.1s8.9.7,12.5,2.1c3.5,1.4,6.3,3.4,8.3,5.9,2,2.5,2.9,5.4,2.9,8.7v1.1c0,2.5-.4,4.7-1.3,6.5s-2,3.2-3.3,4.3-2.8,1.9-4.2,2.3v1.6c1.4.4,2.9,1.2,4.4,2.3,1.5,1.1,2.8,2.6,3.8,4.5,1,1.9,1.5,4.3,1.5,7.2v1.1c0,3.7-1,7-3.1,9.7-2.1,2.7-5,4.8-8.7,6.3s-8,2.2-12.8,2.2ZM1796.2,714c4.2,0,7.4-.8,9.6-2.4,2.3-1.6,3.4-3.7,3.4-6.4v-.7c0-2.6-1.1-4.8-3.3-6.4-2.2-1.6-5.4-2.4-9.7-2.4s-7.4.8-9.7,2.4c-2.2,1.6-3.3,3.7-3.3,6.4v.7c0,2.6,1.1,4.8,3.4,6.4,2.3,1.6,5.5,2.4,9.6,2.4ZM1796.2,685.4c3.8,0,6.8-.7,8.9-2.1,2.1-1.4,3.2-3.3,3.2-5.9v-.7c0-2.5-1.1-4.5-3.2-5.9-2.2-1.4-5.1-2.1-8.8-2.1s-6.7.7-8.8,2.1c-2.2,1.4-3.2,3.3-3.2,5.9v.7c0,2.5,1.1,4.5,3.2,5.9,2.1,1.4,5.1,2.1,8.9,2.1Z"/>
    <path class="st0" d="M1844.9,724.2c-4.8,0-9.1-.7-12.8-2.2-3.7-1.4-6.6-3.5-8.7-6.3-2.1-2.7-3.1-6-3.1-9.7v-1.1c0-2.9.5-5.3,1.5-7.2,1-1.9,2.3-3.4,3.8-4.5s3-1.8,4.4-2.3v-1.6c-1.4-.5-2.8-1.3-4.2-2.3-1.4-1.1-2.5-2.5-3.4-4.3-.9-1.8-1.3-4-1.3-6.5v-1.1c0-3.3,1-6.2,2.9-8.7,2-2.5,4.7-4.5,8.3-5.9,3.5-1.4,7.7-2.1,12.5-2.1s8.9.7,12.5,2.1c3.5,1.4,6.3,3.4,8.3,5.9,2,2.5,2.9,5.4,2.9,8.7v1.1c0,2.5-.4,4.7-1.3,6.5s-2,3.2-3.3,4.3-2.8,1.9-4.2,2.3v1.6c1.4.4,2.9,1.2,4.4,2.3,1.5,1.1,2.8,2.6,3.8,4.5,1,1.9,1.5,4.3,1.5,7.2v1.1c0,3.7-1,7-3.1,9.7-2.1,2.7-5,4.8-8.7,6.3s-8,2.2-12.8,2.2ZM1844.9,714c4.2,0,7.4-.8,9.6-2.4,2.3-1.6,3.4-3.7,3.4-6.4v-.7c0-2.6-1.1-4.8-3.3-6.4-2.2-1.6-5.4-2.4-9.7-2.4s-7.4.8-9.7,2.4c-2.2,1.6-3.3,3.7-3.3,6.4v.7c0,2.6,1.1,4.8,3.4,6.4,2.3,1.6,5.5,2.4,9.6,2.4ZM1844.9,685.4c3.8,0,6.8-.7,8.9-2.1,2.1-1.4,3.2-3.3,3.2-5.9v-.7c0-2.5-1.1-4.5-3.2-5.9-2.2-1.4-5.1-2.1-8.8-2.1s-6.7.7-8.8,2.1c-2.2,1.4-3.2,3.3-3.2,5.9v.7c0,2.5,1.1,4.5,3.2,5.9,2.1,1.4,5.1,2.1,8.9,2.1Z"/>
    <path class="st0" d="M1893.9,724.2c-4.9,0-9.2-.9-12.8-2.6-3.6-1.7-6.3-4.2-8.3-7.4-1.9-3.2-2.9-6.9-2.9-11.1v-.9h11.7v.8c0,3,1,5.6,3,7.7,2,2.1,5,3.2,9,3.2s7-1.1,9.2-3.2c2.1-2.1,3.2-4.9,3.2-8.3v-.9c0-3.4-1.1-6-3.2-8-2.1-2-4.8-3-8-3s-3.2.2-4.3.7c-1.1.5-2.1,1.1-2.8,1.8-.7.7-1.3,1.4-1.8,2.2h-14v-35.4h43.1v10.5h-31.6v15.4h1.6c.6-.8,1.4-1.5,2.4-2.3,1-.7,2.3-1.3,4-1.8,1.6-.5,3.5-.7,5.8-.7,3.7,0,7.1.8,10.2,2.3,3.1,1.6,5.5,3.9,7.4,6.9,1.8,3,2.8,6.8,2.8,11.2v1.1c0,4.5-.9,8.3-2.8,11.6-1.9,3.2-4.6,5.8-8.2,7.5-3.6,1.8-7.8,2.7-12.7,2.7Z"/>
  </g>
</svg>